/* XPM */
static char *f38ff0d3a9104395b0e2c20b437ae6b6l7ae9zQLbP36LmaL[] = {
/* columns rows colors chars-per-pixel */
"64 64 185 2 ",
"   c #000000",
".  c #020A06",
"X  c #030A09",
"o  c #0A0702",
"O  c #06110E",
"+  c #1C1901",
"@  c #0A1A16",
"#  c #0D201E",
"$  c #2D2502",
"%  c #2D2A01",
"&  c #322B02",
"*  c #362901",
"=  c #3C3500",
"-  c #373101",
";  c #393716",
":  c #131720",
">  c #0F2321",
",  c #162C2A",
"<  c #29292E",
"1  c #29323B",
"2  c #3E431B",
"3  c #23403C",
"4  c #3C4A39",
"5  c #574301",
"6  c #624C01",
"7  c #6C5701",
"8  c #785C01",
"9  c #7D6300",
"0  c #746635",
"q  c #3B3E45",
"w  c #2D4F44",
"e  c #2B514A",
"r  c #315652",
"t  c #315A52",
"y  c #3A4B4F",
"u  c #3A6559",
"i  c #416B5D",
"p  c #4F6268",
"a  c #46796B",
"s  c #487E74",
"d  c #5C637D",
"f  c #4D4D55",
"g  c #836600",
"h  c #876C01",
"j  c #8A6C01",
"k  c #886000",
"l  c #906900",
"z  c #8E7000",
"x  c #927301",
"c  c #9B7B01",
"v  c #987701",
"b  c #A17E00",
"n  c #AA7E03",
"m  c #4C8177",
"M  c #648B78",
"N  c #9E8100",
"B  c #A48200",
"V  c #AA8601",
"C  c #AC8A00",
"Z  c #B58B01",
"A  c #B88D02",
"S  c #B08400",
"D  c #B49100",
"F  c #BC9300",
"G  c #BC9901",
"H  c #939D3D",
"J  c #A99637",
"K  c #C29701",
"L  c #C49B01",
"P  c #CA9E01",
"I  c #CC9600",
"U  c #CDA201",
"Y  c #C7A503",
"T  c #D2A501",
"R  c #D5AA00",
"E  c #DAAC01",
"W  c #DCB201",
"Q  c #CBAA18",
"!  c #E1AB00",
"~  c #E4B301",
"^  c #ECB500",
"/  c #E6BB01",
"(  c #ECBB00",
")  c #F3BE01",
"_  c #DAB835",
"`  c #E1BF37",
"'  c #EEC600",
"]  c #F5C301",
"[  c #FCC501",
"{  c #F7C900",
"}  c #FECC01",
"|  c #FED401",
" . c #FEDB00",
".. c #FFD908",
"X. c #F7CD12",
"o. c #FED617",
"O. c #FFE301",
"+. c #FEEB01",
"@. c #FEF201",
"#. c #FFFD01",
"$. c #FEE11B",
"%. c #FEFB18",
"&. c #EFC82D",
"*. c #F1CE32",
"=. c #FDDA34",
"-. c #FFEC3B",
";. c #FFFE3D",
":. c #FDEA2B",
">. c #D6C14A",
",. c #F8D547",
"<. c #FEDB56",
"1. c #FEE346",
"2. c #FEE34A",
"3. c #FEEB4D",
"4. c #FFF84B",
"5. c #FEE55C",
"6. c #FFE357",
"7. c #FFF052",
"8. c #D2C46B",
"9. c #FFE665",
"0. c #FFED63",
"q. c #FFEC6B",
"w. c #FEFF64",
"e. c #FFF364",
"r. c #FFEB70",
"t. c #FEFB71",
"y. c #FEF478",
"u. c #FFFF79",
"i. c #FEF377",
"p. c #636E8A",
"a. c #56958A",
"s. c #6D9A86",
"d. c #5FA395",
"f. c #67A998",
"g. c #7AB095",
"h. c #65AFA2",
"j. c #69B5A7",
"k. c #70BEB1",
"l. c #73C6B7",
"z. c #7ED8BF",
"x. c #7BCFC0",
"c. c #77D4C4",
"v. c #7CD5C4",
"b. c #7FD8C5",
"n. c #7BD4C8",
"m. c #97989B",
"M. c #80B49D",
"N. c #8E95A9",
"B. c #8A90A6",
"V. c #9195A9",
"C. c #9B9DB2",
"Z. c #82D7BE",
"A. c #8DD7BE",
"S. c #83D9BF",
"D. c #8DD9BE",
"F. c #9BD7B7",
"G. c #9AD8B7",
"H. c #93D7BC",
"J. c #9AD7BA",
"K. c #94DABC",
"L. c #9AD8B9",
"P. c #97D4B5",
"I. c #FEFE82",
"U. c #FFFF89",
"Y. c #FFEC99",
"T. c #FFFAB6",
"R. c #ADB5C3",
"E. c #82D6C2",
"W. c #8CD7C1",
"Q. c #84D9C3",
"!. c #8BDAC2",
"~. c #85D7C9",
"^. c #89D7C9",
"/. c #85D8C8",
"(. c #87D8C9",
"). c #86D9C9",
"_. c #86DACA",
"`. c #86D8C9",
"'. c #91DAC1",
"]. c #90D5C0",
"[. c #CED0CB",
"{. c #FFFFCF",
"}. c #DAE4FC",
"|. c #FEFEFD",
" X c #FFFDF1",
/* pixels */
"L.L.L.L.L.L.F.L.F.L.(.(.W.(.~./.^.~.(.(.(.(.~.(.(.(.(.~././././.(.E._./././._._.(.(.(.(.(.(.~.~.H.J.J.J.L.L.L.L.L.L.G.G.K.G.G.L.",
"L.L.L.L.L.L.L.L.J.'.~.~.(././.^.~.^.(.(.(.(.^.~.(.(.(.(.(.~./.(././.E./././.(._.^.^.(.(.~.~.(.E.H.K.P.J.L.L.L.L.L.L.K.G.G.K.L.L.",
"L.F.L.F.P.J.J.P.A.n.b.b.b.v.v.b.v.v.v.v.b.z.v.v.v.v.b.z.v.v.v.c.n.v.v.v.v.v.b.b.v.v.v.v.b.v.c.c.b.K.L.L.L.L.L.L.L.G.G.G.G.G.L.L.",
"n.n.n.E.b.b.n.v.E.n.v.v.v.v.n.b.v.b.v.b.b.v.v.v.v.v.c.c.c.c.v.n.v.c.c.c.c.c.v.v.v.E.v.v.b.v.v.v.v.Q.S.!.'.'.K.K.'.'.'.'.'.D.'.'.",
"b.b.v.v.v.v.v.v.c.v.v.v.v.v.n.v.v.v.v.v.v.z.v.v.v.v.v.n.c.n.v.c.c.v.n.v.c.c.v.v.v.v.v.n.v.v.v.v.v.b.E.E.Q.W.W.Q.S.Q.W.Q.S.!.S.!.",
"v.v.x.v.v.v.v.v.v.b.v.v.v.v.v.b.x.v.v.v.v.v.v.v.v.b.v.v.b.v.v.v.v.v.v.v.v.v.v.v.v.v.v.v.v.v.v.v.b.v.v.v.E.Q.z.z.Q.z.b.b.z.b.z.Q.",
"z.v.c.v.v.v.v.v.n.b.v.v.v.v.v.v.z.v.v.v.v.v.v.v.n.v.v.E.z.E.E.W.E.Z.Q.E.E.E.v.v.n.n.v.v.v.v.v.v.v.n.b.z.v.v.b.v.b.b.v.n.v.v.b.b.",
"v.v.v.v.v.v.v.v.v.v.v.v.v.v.b.v.v.v.v.z.v.v.v.v.z.A.J.F.J.H.F.P.F.H.L.L.F.J.A.E.E.n.v.v.v.v.v.v.v.v.v.v.c.c.c.v.c.v.v.c.c.b.c.c.",
"v.v.v.v.v.v.v.v.v.v.v.v.v.v.v.v.v.v.v.E.n.n.c.v.K.L.L.P.L.G.L.L.L.L.F.L.L.J.K.D.v.c.v.v.v.v.n.b.v.v.v.v.c.v.x.v.v.c.v.v.v.x.c.v.",
"b.v.b.b.v.b.v.E.v.z.v.v.z.v.v.v.v.E.v.v.v.v.v.c.L.L.L.L.L.L.L.L.L.L.L.G.L.L.F.J.n.v.v.c.v.v.E.b.v.v.v.v.v.c.v.n.v.v.v.v.v.v.v.v.",
"v.v.v.v.b.v.v.v.v.v.v.z.v.v.v.v.v.v.v.v.v.v.c.c.L.K.L.L.L.G.L.L.G.L.L.F.G.L.L.L.v.c.z.c.v.x.b.v.v.v.v.v.v.v.n.v.v.v.v.v.v.v.v.v.",
"v.z.z.v.v.v.v.v.b.v.v.v.v.v.E.v.v.v.b.v.v.v.v.v.A.J.L.L.L.L.L.L.L.L.L.J.G.G.L.D.v.v.v.c.v.v.b.v.v.v.v.b.v.n.E.v.v.v.v.v.v.v.n.x.",
"v.x.v.v.v.v.v.v.E.v.v.v.v.v.v.v.v.v.v.v.v.v.v.c.b.].J.F.P.G.G.G.P.L.J.F.L.J.D.E.v.v.v.v.v.v.v.v.v.b.v.b.E.v.v.n.v.v.v.v.b.v.v.v.",
"v.v.v.v.v.n.v.v.n.v.v.v.v.v.v.v.v.v.v.z.v.v.v.v.v.v.n.Q.b.Q.Q.Q.Q.Q.E.Z.E.E.b.v.v.v.c.v.v.v.v.v.v.E.v.v.v.v.v.v.v.b.v.v.v.v.v.v.",
"n.x.v.v.v.x.v.v.x.n.v.v.E.v.v.E.v.v.n.x.v.v.v.v.b.v.b.b.v.v.b.v.b.v.v.v.v.v.v.n.v.v.v.v.v.v.b.v.v.v.v.v.v.v.v.v.b.z.v.v.v.v.v.v.",
"v.v.n.v.c.v.v.c.c.v.n.v.n.v.v.v.v.v.v.v.v.z.b.v.v.v.c.c.c.v.c.c.n.c.v.c.v.c.v.v.v.v.v.v.v.v.v.v.v.v.v.v.v.v.v.v.c.v.c.v.x.v.n.v.",
"c.v.n.v.v.v.c.v.c.n.z.v.v.v.v.v.v.v.v.v.b.n.v.v.v.v.c.v.c.n.v.c.n.c.v.n.v.c.v.v.b.v.v.v.b.v.v.v.v.v.v.v.v.v.b.v.v.v.v.c.c.c.v.c.",
"v.v.n.E.b.v.v.v.b.n.c.v.b.v.v.b.v.v.v.v.v.v.v.v.c.b.a.X . . X X . X . X v.c.v.c.v.n.n.v.v.v.v.b.v.v.E.v.v.v.z.v.v.c.v.b.v.v.v.v.",
"P.L.L.F.L.L.J.J.K.K.n.v.v.v.v.v.v.v.v.v.v.v.v.v.t r 4 H c c x 8 8 h j 7 e r s v.b.v.z.v.v.c.n.v.v.v.v.v.v.v.c.v.v.v.E.H.J.F.J.J.",
"F.L.L.L.L.L.L.P.L.L.K.Z.v.v.v.v.v.v.b.v.c.z.l.a ; ; J 4.#.#.@. . . .| ( - $ + f.z.v.v.b.v.v.v.v.v.v.v.v.v.v.v.v.v.E.A.P.J.F.H.J.",
"L.L.L.L.L.L.L.L.P.L.L.b.v.c.v.v.v.v.v.v.v.v.u $ 7.u.+.| | |  . . .] W ~ E ] V   h.n.v.n.n.v.v.v.x.v.n.b.b.v.v.c.v.b.L.G.L.L.L.L.",
"L.L.L.F.F.F.L.L.G.J.K.E.v.c.v.c.n.v.b.v.v.1 d }.3.y.%.| V B V C C v F ] [ E L D O a.c.z.v.n.b.v.v.E.E.n.v.v.v.c.b.b.L.L.L.L.L.J.",
"F.L.L.L.L.L.F.F.L.L.H.Z.v.v.n.v.n.b.z.l.u p.[.T.e._ G P Z Z Z Z Z F F F F T ^ W v ; s v.b.v.v.b.v.v.E.n.v.c.c.n.v.Z.K.G.L.L.G.G.",
"L.L.L.L.L.L.L.L.J.J.E.z.v.c.v.v.v.v.l.m < |.T. .,.C g V { } ] { { } R c v L W Y | h + f.l.v.v.v.v.n.v.v.z.c.v.c.v.Z.(.L.L.L.L.J.",
"'.!.!.!.W.W.!.!.!.W.Q.b.v.v.v.v.n.v.e q |.r.3.,.h T ^ ~ 0.q.0.0.i.{ ! ~ ) Z c ] U ~ C   f.v.v.v.x.z.b.v.v.v.v.v.n.b.E.E.!.!.!.!.",
"(.Q.E.E.E.E.E.E.E.E.v.b.v.v.v.v.v.v.u : |.U.W C P X.5.,.G G D C C c E +.~ R L C E ] c   k.v.v.v.n.v.v.v.v.v.b.v.v.b.b.Z.E.E.Q.Q.",
"v.b.n.E.v.v.v.v.v.v.v.v.v.v.b.v.n.s p m.T.I.P k ^ 6.t.o.x g V L L c V / [ [ R j W ] Z 5 u v.v.v.v.c.v.b.n.b.b.v.v.v.v.v.v.v.b.v.",
"c.c.v.v.v.c.v.c.c.v.v.v.v.v.v.v.v.  R.|...2.Y B ( ,.+.[ B h U @.@.R 9 x | | P n R R E } $ v.n.v.c.c.c.v.v.v.n.v.v.v.v.v.c.c.v.n.",
"v.c.n.v.v.x.v.v.v.c.v.v.v.v.v.v.v.. V.|.1.V Z ] 9. . .} B j Y O.O.P h V | [ E ~ B K ( E % v.c.v.v.v.v.c.v.E.v.v.v.v.v.v.v.v.c.l.",
"v.v.v.v.v.v.v.v.v.v.z.v.v.v.v.v.v.. V.|.1.B Z { q. . .} b h R @.@.R 9 x |  .} ^ c K ) E $ v.v.v.v.v.v.v.v.v.n.v.v.v.v.v.v.v.n.n.",
"v.x.v.v.v.n.v.n.v.v.v.v.v.v.v.v.v.X N.|.1.V Z ] 9.|  .} B x F W W V c U | O.| ! B G ) R % E.Q.E.Z.E.b.v.v.v.v.b.v.v.v.v.v.v.b.b.",
"v.v.v.v.v.v.v.x.v.v.v.v.v.v.z.v.v.X N.|.1.V Z ] 9. . .} b c c c v z T +. . .} ~ B K ( E $ J.P.J.J.K.Z.b.v.v.v.v.v.v.v.v.v.b.v.v.",
"v.v.E.n.n.v.v.v.v.v.v.v.b.v.v.v.v.X N.|.<.V Z ] 9.|  .} B j P  .| | | | |  .| ~ B K ( E $ J.L.L.G.G.D.E.v.v.v.c.v.v.x.v.v.v.v.v.",
"v.x.n.v.n.E.v.x.E.v.v.v.v.v.b.b.n.X N.|.1.v V | y. . .} b j T +. . . .|  .[ ( ] c G ] E $ L.L.L.L.L.K.Z.v.c.v.v.v.v.n.v.v.v.E.v.",
"v.n.v.v.x.v.v.n.n.v.v.v.b.v.v.c.b.  C.|.:.U F E =. .O.} N j U O...| | |  .] U U D P ^ ~ $ J.L.L.G.L.J.Q.n.c.v.v.v.v.v.v.v.v.n.n.",
"v.x.v.v.v.v.v.v.v.v.v.v.v.v.v.v.c.O B. X2.t.Q j E <.-.[ B j P O.| | |  . .} L x W ~ L R & F.L.L.F.L.H.b.v.c.v.v.x.v.v.v.n.v.v.x.",
"v.v.n.n.v.E.n.v.v.v.v.b.v.v.v.c.v.l.r f  XI.F l ( 2.I.,.j 8 K O.| | O.| ^ ) E j E [ b o s.H.G.J.L.K.Z.E.n.v.v.v.v.x.v.v.x.E.v.v.",
"v.E.v.x.v.v.n.x.v.v.v.v.v.v.v.v.v.v.w 1 |.i.' Q n ( o.X.` _ *.:.-.} ) { ] L Z T U } Z   f.E.E.Z.Q.b.b.v.v.v.v.v.v.n.v.v.v.v.n.n.",
"n.v.v.v.v.v.v.v.b.v.v.v.z.v.b.Q.E.E.a y [.Y.u.1.V F I R 3.7.2.<.5.( T P E C C ( W K 9 , j.z.v.n.v.b.v.v.v.v.v.v.v.v.n.x.v.v.x.v.",
"x.v.v.v.v.v.x.v.v.v.v.v.v.b.Q.!.W.K.P.g.  }.{.$.e.D 8 n ~ ~ ~ ~ ~ ) T x j U ( L ] 5 @ c.c.z.c.c.c.v.v.v.v.b.v.z.n.E.E.n.v.v.v.v.",
"E.v.n.n.x.v.v.v.v.v.v.z.c.b.!.'.K.F.L.P.g.< R.|.5.[ ] ( v x c c c c Z E E ! ] ] 5 w j.c.c.c.n.n.v.c.x.v.v.v.v.v.n.v.v.v.v.v.v.E.",
"v.v.E.v.v.v.v.v.c.v.c.c.v.Z.!.'.L.L.L.L.L.M y m.w.;.#.| R T R E E G P ] [ | T 6 e j.v.n.x.z.x.n.c.c.n.v.v.v.v.n.v.v.v.v.v.v.v.v.",
"v.x.v.v.v.v.n.x.c.v.v.v.v.E.!.'.L.L.L.L.F.L.M # >.8.*.O.+.+.+.O.+.| ( E B D 7 > v.v.c.v.v.v.v.c.v.v.n.v.v.v.z.x.x.v.v.v.v.v.v.v.",
"n.n.v.v.n.v.v.E.v.v.v.v.v.E.W.!.L.L.J.L.F.F.L.M.    0 w.+.+...^ ) ] [ U     # v.v.v.b.v.v.v.z.v.z.v.c.x.z.v.c.v.v.v.v.c.v.n.v.v.",
"v.x.v.E.n.v.v.v.v.v.v.v.v.b.S.Q.S.L.G.P.L.L.L.P.f.f.i ; = = - % * & & % a.f.h.v.v.v.z.v.v.v.b.n.v.v.v.v.v.v.c.n.c.c.c.v.c.c.v.v.",
"v.n.v.v.x.v.v.v.v.v.v.v.v.b.E.b.Q.E.(.E.(.E.b.b.v.v.z.x.b.z.n.n.b.n.x.v.b.v.v.v.v.v.v.v.v.v.v.v.v.v.x.v.v.b.v.v.v.v.v.b.v.b.n.v.",
"v.v.x.v.v.v.E.n.v.v.v.v.v.v.v.v.b.b.v.c.v.v.v.n.v.v.c.b.v.v.x.x.b.v.c.n.c.v.n.b.v.v.v.v.v.v.v.v.b.n.b.E.E.E.E.E.E.E.Z.Q.E.E.b.v.",
"v.v.n.n.v.v.v.x.v.v.v.v.v.v.v.c.c.c.v.v.c.v.v.b.v.v.v.v.c.n.z.c.v.v.c.v.c.c.v.v.n.v.b.v.v.v.v.v.v.E.E.E.!.D.!.!.!.!.!.!.W.W.E.v.",
"v.E.n.x.v.v.n.v.v.v.v.n.v.v.v.v.v.z.x.v.c.c.v.v.v.v.v.n.c.v.c.v.v.c.v.v.c.c.v.v.v.v.v.v.n.c.x.z.v.Z.W.W.L.L.L.L.L.L.L.G.L.!.!.Q.",
"v.n.v.v.v.v.n.x.v.v.E.v.E.n.n.n.v.v.c.c.v.v.v.v.E.v.v.v.b.v.v.v.v.v.v.E.v.b.n.b.v.v.v.v.v.c.c.v.v.b.!.L.L.L.L.L.L.L.L.P.L.K.!.b.",
"v.v.v.v.x.E.v.v.v.n.n.v.v.v.x.v.v.v.v.v.x.v.v.v.n.E.v.E.Q.Q.Q.Q.E.Q.Z.E.Z.E.n.v.v.v.v.v.v.v.v.c.b.Q.S.L.L.L.L.G.L.L.L.L.F.F.S.(.",
"v.v.x.n.n.v.v.v.v.E.x.v.v.v.v.v.v.v.v.v.v.v.v.v.v.W.J.J.L.L.P.L.P.G.L.L.F.H.A.b.v.v.v.v.v.v.c.c.v.E.!.L.P.L.L.G.G.L.J.L.L.L.S.Q.",
"E.n.v.v.v.v.x.v.v.x.E.v.n.v.v.v.v.v.b.b.v.v.v.c.A.P.F.L.L.J.L.L.L.L.L.L.G.F.L.K.v.v.x.v.v.v.v.v.v.n.E.H.J.K.L.L.F.F.J.J.L.D.Q.b.",
"x.n.E.x.n.n.n.n.v.n.n.v.E.x.v.v.b.n.v.v.v.v.c.c.K.F.L.L.L.L.L.L.L.L.L.L.L.L.L.G.v.v.n.v.v.v.v.v.v.b.E.Z.].J.G.P.L.F.J.K.K.Q.b.b.",
"v.v.v.n.x.v.v.E.v.v.v.v.n.n.~.v.v.x.v.n.v.v.v.x.F.J.L.L.L.L.L.F.L.L.L.L.L.K.L.P.v.c.v.c.v.v.v.v.b.v.c.n.v.n.v.v.v.v.v.v.v.z.v.v.",
"v.v.v.v.v.v.v.v.n.v.v.v.x.v.v.v.v.v.v.v.v.v.c.v.H.L.L.L.L.G.L.L.L.L.G.L.L.J.L.A.v.v.c.v.v.v.v.v.v.z.v.c.n.c.v.v.v.v.c.c.c.v.v.v.",
"n.x.v.v.n.x.v.v.v.v.v.v.v.v.z.v.v.v.v.z.v.v.v.z.b.A.J.P.J.J.J.G.L.L.H.F.G.L.D.E.z.v.v.v.z.x.v.z.b.v.v.c.c.c.c.v.c.v.c.v.c.v.v.v.",
"v.v.z.v.c.z.v.v.v.E.n.v.b.v.v.n.z.v.v.v.v.v.v.v.v.v.b.z.b.E.E.E.E.E.E.E.Z.E.n.v.v.v.v.v.v.v.v.v.v.v.v.v.v.v.c.v.v.v.x.z.v.v.v.v.",
"v.v.v.v.v.v.v.v.v.v.v.v.v.v.v.v.v.v.v.v.v.x.n.v.v.v.v.v.b.v.v.v.b.v.v.n.v.v.b.b.v.v.v.v.v.v.v.v.v.v.v.v.n.b.v.v.v.v.v.v.v.v.v.n.",
"v.v.v.v.v.v.b.b.n.v.v.v.v.b.v.v.v.v.b.v.v.z.v.v.v.v.n.v.c.v.c.v.v.v.v.c.v.c.v.v.v.v.v.v.v.v.v.v.v.b.v.v.v.v.v.v.v.v.v.v.v.z.v.v.",
"v.n.b.b.E.n.n.n.Z.v.v.b.v.v.v.b.b.v.v.v.v.v.b.v.n.v.v.v.c.c.v.v.c.c.v.c.c.c.n.c.b.b.v.v.v.v.v.b.v.v.v.v.v.n.b.v.b.n.b.n.v.n.b.v.",
"P.L.P.H.L.L.L.L.A.b.v.n.v.v.v.v.v.v.v.z.v.v.z.v.b.v.v.v.b.n.v.c.v.v.c.v.v.x.v.b.v.b.v.z.v.v.z.b.v.A.L.P.L.L.G.L.P.L.P.L.J.P.J.P.",
"F.F.L.L.L.F.L.L.J.W./._.^.(.~.^.(.(.(.(.(.(.(.(.(.(.~.~././.E.(./././././.(.(.(.(.(.(.(.~.^.(.(.D.L.G.G.L.L.L.G.L.L.L.L.F.L.L.L.",
"F.L.F.L.L.L.L.L.F.J././.W.(.~.~.(.(.(.(.(.(.(.(.(.(.^.~._._././.(./././.(.E.(.(.(.(.(.(.(.~.(.(.H.L.L.G.L.F.L.L.L.L.L.L.L.L.L.L."
};
