/* XPM */
static char *_9c55fdb59f4496bfe6f6a0390f1f812C2U2tBydzyjKGZiD[] = {
/* columns rows colors chars-per-pixel */
"64 64 225 2 ",
"   c #69525F",
".  c #5D5F68",
"X  c #665364",
"o  c #6B5464",
"O  c #6E5965",
"+  c #6B5869",
"@  c #725666",
"#  c #795667",
"$  c #735966",
"%  c #7A5A66",
"&  c #735668",
"*  c #7A5769",
"=  c #755A69",
"-  c #7C5B6A",
";  c #735F71",
":  c #5B6B7C",
">  c #586778",
",  c #5B6064",
"<  c #68646A",
"1  c #74616B",
"2  c #7B626D",
"3  c #776267",
"4  c #6C6474",
"5  c #65697A",
"6  c #726474",
"7  c #7B6371",
"8  c #766977",
"9  c #69717F",
"0  c #835C6B",
"q  c #8B5E6D",
"w  c #825967",
"e  c #925E6D",
"r  c #995F6D",
"t  c #965F71",
"y  c #875E71",
"u  c #83616E",
"i  c #8A636E",
"p  c #8B686F",
"a  c #92616E",
"s  c #9A636F",
"d  c #93686F",
"f  c #846371",
"g  c #8A6571",
"h  c #8D6A73",
"j  c #946471",
"k  c #9C6472",
"l  c #946B74",
"z  c #9A6D76",
"x  c #9A6E78",
"c  c #976F78",
"v  c #997277",
"b  c #9B7279",
"n  c #987478",
"m  c #A36674",
"M  c #A46B75",
"N  c #AB6976",
"B  c #AD6C79",
"V  c #AB6575",
"C  c #B26B76",
"Z  c #B56C7A",
"A  c #B96D7B",
"S  c #B86674",
"D  c #A4757B",
"F  c #A9767A",
"G  c #BC757E",
"H  c #BD7B7E",
"J  c #B5767C",
"K  c #A5636F",
"L  c #C5737D",
"P  c #CB747E",
"I  c #C67B7D",
"U  c #DC7E7F",
"Y  c #D3797D",
"T  c #C06F7E",
"R  c #E07E7F",
"E  c #668C7D",
"W  c #D4827E",
"Q  c #566D81",
"!  c #5B7282",
"~  c #5A7A8C",
"^  c #647585",
"/  c #6C7284",
"(  c #657B8A",
")  c #6B7C8A",
"_  c #6B7886",
"`  c #7D7C89",
"'  c #787985",
"]  c #656F82",
"[  c #AE7E82",
"{  c #B17D82",
"}  c #BD7B82",
"|  c #B07682",
" . c #C27C82",
".. c #CB7E85",
"X. c #C87380",
"o. c #DD7D81",
"O. c #D67A81",
"+. c #E37E81",
"@. c #EC7D82",
"#. c #578B83",
"$. c #569B8E",
"%. c #599B8D",
"&. c #5E9187",
"*. c #588697",
"=. c #599B91",
"-. c #579B90",
";. c #75828B",
":. c #6B9D89",
">. c #6A9B88",
",. c #719D86",
"<. c #709B87",
"1. c #6B8593",
"2. c #778894",
"3. c #6B949E",
"4. c #63919E",
"5. c #6D9091",
"6. c #5EA296",
"7. c #66AA9C",
"8. c #79AA91",
"9. c #6B95A2",
"0. c #6898A6",
"q. c #7798A2",
"w. c #6DA2AC",
"e. c #72A1AC",
"r. c #73A8AE",
"t. c #6BB7A8",
"y. c #74BCA9",
"u. c #6EC3B2",
"i. c #72C3B3",
"p. c #75CBBB",
"a. c #78C8B7",
"s. c #7CD2BB",
"d. c #7DC6AF",
"f. c #7CD5C4",
"g. c #76D4C3",
"h. c #7ACEC1",
"j. c #AD8682",
"k. c #B58284",
"l. c #BB8585",
"z. c #BC8A87",
"x. c #BD8B89",
"c. c #BA8788",
"v. c #BD958D",
"b. c #81B598",
"n. c #87BDA5",
"m. c #C38484",
"M. c #CB8484",
"N. c #C48C8B",
"B. c #C98C8C",
"V. c #C88688",
"C. c #D38D8B",
"Z. c #D58A88",
"A. c #CE928E",
"S. c #D3938E",
"D. c #D8948D",
"F. c #DC8E91",
"G. c #CE9792",
"H. c #D39591",
"J. c #D99693",
"K. c #D69893",
"L. c #DA9994",
"P. c #DC9B98",
"I. c #CA8F91",
"U. c #E48183",
"Y. c #EA8285",
"T. c #E88B8B",
"R. c #FD8A89",
"E. c #F78787",
"W. c #FE928E",
"Q. c #E19B94",
"!. c #EA9B93",
"~. c #FF9591",
"^. c #F39891",
"/. c #E9908C",
"(. c #DEA295",
"). c #EBAA9B",
"_. c #E8A396",
"`. c #FEAC9D",
"'. c #F6AA99",
"]. c #ECB49F",
"[. c #E6B39E",
"{. c #F3B19F",
"}. c #CBB1A5",
"|. c #FFAEA1",
" X c #F2AFA2",
".X c #EDB4A2",
"XX c #EAB9A5",
"oX c #EAB9A8",
"OX c #F2B3A1",
"+X c #FDB4A3",
"@X c #FEBCA6",
"#X c #FEBCA9",
"$X c #8CC5A9",
"%X c #8BC6A9",
"&X c #91C9AD",
"*X c #86CDB3",
"=X c #86D8BE",
"-X c #99D9B7",
";X c #9AD7B9",
":X c #93D9BC",
">X c #9AD8B9",
",X c #98D5B5",
"<X c #DFD3BD",
"1X c #E8C2AE",
"2X c #FFC6AB",
"3X c #FFCBAD",
"4X c #F9C1A7",
"5X c #FED0AF",
"6X c #E6C5B1",
"7X c #E4CBB6",
"8X c #E7CAB7",
"9X c #FECEB1",
"0X c #E3D1BD",
"qX c #FFD3B2",
"wX c #FED5B9",
"eX c #FEDBBB",
"rX c #FED9B5",
"tX c #FEE1BF",
"yX c #81D5C3",
"uX c #84D9C2",
"iX c #8BDAC2",
"pX c #91DCC1",
"aX c #FEDFC0",
"sX c #FEE2C3",
"dX c #FFE8C8",
/* pixels */
">X>X>X-X>X>X>X>X>X-XyXyXy.7.&.4 2 % $ - 2 2 2 2 2 2 7 7 2 2 = % - 3 2 2 2 1 7 7 7 2 2 - = - 3 < E 8.n.&X,X,X,X-X-X>X>X>X;X-X;X>X",
">X;X>X;X;X;X;X>X;X*Xy.7.&.; X z..XH p Q.OX]..X6X6XoX0X0X.X_.d F '..X.XOX7XoX1X0X0X7X].!.p J ].z.O < E 8.n.,X,X,X>X-X>X;X>X>X>X>X",
">X>X-X;X;X;X,X,X*Xt.#.. X m.(.2XrXA.z 4XqXqXqXeXeXqXtXeXrX3XF j.qXqXqXqXtXrXeXsXsXtXqX2Xl G.rX2X(.W < < E b.&X,X;X>X;X>X-X-X-X-X",
"f.f.f.f.f.g.g.a.t.E + m.}.wXrX3XrXK.v 3XqX3X3X2X3X3X2X3X5XrXF z.qX3X9X3X2X2X3X2X2X2X9X9Xn G.rX5XrXrX}.W 3 E y.*X:X:XpXpXpXpXpXpX",
"f.f.f.f.f.f.p.t.E O B.wXdXdXqX3X5XA.l @XqX3X5X9XqXqXqX5XqX2XD k.3X3X9XqXqX3XqXqX9XqXqX4Xl A.9X9X5XdXdXwXC.1 E t.s.uXiXiXiX=X=XiX",
"f.f.f.f.f.s.t.&.1 S.qXdX3X3X2X@X`.M.i '.@X#X#X@X@X#X@X#X#X`.M J +X#X@X@X@X@X@X@X@X#X@X~.a  .|.@X4X3X3XdXwXS.$ >.u.s.f.s.yXf.f.uX",
"f.f.f.f.g.p.7., H qXsX3X3X2X`.W.R.L u o.+.o.O.o.o.o.O.o.U U.s m Y.o.+.+.o.o.U o.O.o.+.o.i L R.W.`.2X3X3XaX9Xl., 7.i.f.f.f.f.f.f.",
"yXf.f.f.p.t.#.O K.qX5X3X2X`.W.E.@.S @ - 0 0 0 0 0 0 0 w 0 * = = % % * - 0 - 0 0 0 0 0 % = S @.E.^.`.2X3X9XqXK.X E t.p.f.g.f.f.f.",
"f.f.f.f.u.6.< m.4X5X9X3X`.W.E.Z - - w k B A C Z Z Z Z C k * @ : : O @ k Z Z Z Z Z Z Z k w - * C R.R.`.2X3X5X@Xl., 6.a.g.f.g.f.f.",
"f.f.f.s.t.E X (.qX3X3X2XW.E.C @ X - m X.T X.L X.L L L L A 0 @ 5 ! @ - A P X.L X.L L X.X.m - + & N R.W.2XqX2XqX(.X #.t.g.g.f.g.f.",
"f.f.f.p.7.5 H @XqX9X2X|.E.C = o @ = q q q q q q q q q q e - @ 5 Q = % q q q a i e e q q q - $ o = C E.`.2X5X9X#Xj.< 7.p.f.f.f.f.",
"f.f.f.i.6.2 {.5X3X9X@X~.E.0 X 0 s z s s t t k k k t k k y % @ : : * = + & X X X X X X X X + $ $ X i R.~.@X5X9X3X{.u 6.i.f.f.yXf.",
"f.f.f.i.$.2 ].qX3XqX#XE.G 0 - m L L ..M.M.M.M.M...M.M.X.C 0 @ 9 / & % j s b b D b b D b D z k a = - G E.@XqX3XrX.X7 -.i.yXf.f.f.",
"f.yXf.i.%.- OXrXqX5X@XY.= o m L L I F.L.P.P.P.L.L.P.L.F.L i o ' ) @ - L Z.Q.Q.P.Q.Q.P.P.Q.F.O.T m O # Y.@XrXqXrXOX- =.u.f.f.f.f.",
"f.g.f.i.%.% V.).[._.T.I % @ m Z N J l.l.c.c.z.l.l.l.l.l.N 0 @ / _ @ % N m.z.z.l.z.c.l.x.l.x.H Z m & % P T._..X).M.- =.p.f.f.f.f.",
"f.g.g.i.$.$ u p h f i 0 = @ % % w u u u u u u f f u i u 0 - # 5 ! * - 0 u f 0 f f f u f u u 0 % # @ = q i i h g u O =.t.f.g.f.f.",
"f.g.f.u.$.- C.+X4XOX^.o.- O $ o i  .B.B.N.N.B.B.N.B.B.B.B.} q 9 ^ 0 G B.B.B.B.B.B.N.N.N.B.G e + $ + 0 O.^.{.4X+XS.- $.u.f.g.f.g.",
"f.f.f.i.=.- {.qXqXqX@XY.= : ( ~ 4 B L.K.L.J.L.K.J.K.L.K.J.J.z : Q j C.J.K.J.J.L.J.J.L.K.L.D 4 ~ ( Q - Y.#XqXqXqX].2 %.u.f.f.f.f.",
";X>X>X$X,.2 7XeX2XqX@XY.- *.0.0.> d K.K.H.H.H.H.H.H.H.H.K.K.z : ! i K.H.H.H.K.S.K.H.H.K.D.l > 0.0.*.- Y.#XqX2XeX6X7 %.%X:X>X-X>X",
";X>X;X$X,.7 0XsX2X5X@XY.- 5 ' / 7 J K.S.H.G.K.G.H.S.H.H.S.K.z / _ l H.K.H.G.S.S.K.S.H.S.H.J f 9 ' 4 - U.@XqX2XdX0X2 :.$X>X-X>X>X",
">X-X>X$X,.7 1XeX3X5X#XU.0 e N D } F.L.J.P.K.L.L.K.L.P.P.P.C.s _ ) a C.L.L.J.P.L.K.L.P.L.P.F.H D M a - Y.@X9X3XeX1X2 :.%X>X>X>X>X",
"-X>X>X$X,.2 1XrX2X9X#XU.- k } x.c.k.k.k.H k.k.k.k.k.k.k.} C w 2.2.- m J { [ [ j.j.[ [ { { { k.k.{ k 0 +.@XqX3XqXoX2 :.%X>X-X>X>X",
">X>X-X$X,.7 7XeX3XqX@XU.0 o & O @ @ & @ @ & & @ & & & @ + @ # ` 2.= 0 i i g g u u g i i f g f f g % - U.#XqX3XsX8X2 :.$X>X-X;X-X",
">X>X-X%X,.2 ].qX3XqX#X@.* & % - % % % % * - - % - % % - % = * ;.2.0 H S.S.B.H.A.S.H.A.A.A.S.A.H.C.N 0 +.#X3X3XqX.X2 :.$X;X>X-X;X",
"pXiXiXd.:.2 .XqX3X5X#XU.0 t Z A A A Z A Z Z A Z A Z A A A V w _ ( i H.J.J.K.K.K.K.K.K.K.J.J.K.K.L.x.q U.#X9X2XrX].2 :.d.uXiXiXiX",
"yXyX=Xa.%.7 .XqX3X5X#XU.0 B L L X.L L T L L L L X.T L L L T q ) 1.a K.D.S.H.H.H.K.H.H.S.H.H.G.H.P.z.q o.@XqX3XqX.X- %.i.yX=XuXuX",
"f.f.f.u.%.- _.3XrX2X`.Y.- m L L L L L L L L L L L L L L L A q / ) q ..J.L.L.J.J.K.L.K.K.J.J.K.L.J.J q Y.+X3X5XqX_.- %.i.f.f.f.f.",
"f.g.f.u.$.% z k.j.[ B z * - q a a q j q j q e i e e q e q q # / ) - e z c l x x z x x x z z x b l q = k B [ j.k.b % %.i.f.f.g.f.",
"f.g.g.u.-.= M { j.[ B k % i z n b c b b c b c b x b b b x j w ] ^ w e z b z n x z x z x z z l n k q - k N [ j.[ z = %.u.f.f.g.f.",
"f.f.f.i.=.- _.9X5X3X+XY.0 J J.L.J.L.J.K.J.K.L.J.L.J.J.J.Q.Z.k > Q 0 Z.P.K.J.J.K.J.J.K.L.K.L.K.P.J.| 0 Y.`.9XrX9X_.- =.i.f.g.h.f.",
"f.f.f.i.$.2 XXrX3X5X#XR q x.P.H.H.H.H.H.H.H.H.H.H.H.H.K.H.V.g > > q x.C.K.K.H.H.H.H.S.K.K.H.S.H.P.N.q U.#XqX3XrXXX2 %.i.f.f.f.f.",
"f.f.f.i.%.7 0XeX3XqX#XU.u m.L.K.K.K.K.K.K.K.K.K.K.K.K.S.} g 2 = = = f A C.K.K.K.K.K.K.K.J.K.K.K.P.m.0 +.#XqX3XtX7X7 =.i.f.f.f.f.",
"f.f.f.i.=.2 0XsX2XqX@XU.w Z A.H.A.G.H.S.S.G.A.H.S.H.D. .u 2.q.' 8 e.q.0 G S.A.H.A.A.A.A.A.A.A.A.B.B w U.#XqX3XeX7X6 %.u.f.f.f.f.",
"f.f.f.i.%.2 .XqX3X9X@XU.0 * y q i i i i i g i i g g u 0 @ 1.r.` 8 0.q.1 % i g u g f g q f g i i i % - Y.@X3X3XrXoX7 %.i.f.f.f.f.",
"f.f.f.i.$.7 6XeX3X9X@XU.* O o o X X X o X X X o X o o O % _ e.` 6 9.q.2 s | { { [ [ [ | { { { { F r 0 Y.#XqX9XeX6X2 %.i.f.f.f.yX",
"f.f.f.i.%.2 1XeX2X9X@XY.* O 0 k m m k m k m m k m m k q = ( e.` 6 9.q.2 I L.L.J.P.L.L.P.P.J.J.P.Q. .0 Z.@XqX3XrX1X2 $.i.f.f.f.f.",
"f.f.yXp.%.2 ].qX3XqX#XU.- O m L L L L L L L P P L L L Z - ( e.` 6 9.q.7 B.L.H.S.H.G.H.H.H.H.G.H.P.N.0 Z.+XqX3X3X).2 $.a.f.f.f.f.",
"f.f.f.i.%.2 .X5X3XqX#XU.- O V X.L L P L L L L L L L L A - ( e.` 6 3.q.7 H L.J.P.J.J.P.J.J.L.L.L.Q.l.0 U.#X9X3XqX.X2 $.i.f.f.f.f.",
"f.f.g.i.$.2  XrXqXqX@XY.- o q m V N N N N N N V V B V e = ) e.` 6 3.q.2 K l.N.N.N.N.N.N.x.N.V.N.m.m 0 @.#XqXqXrXOX2 $.i.f.uXf.f.",
"f.f.f.i.=.= C.+X4XOX^.U - = 0 u u u u 0 0 u u 2 u 0 q * % ) w.` 6 9.q.= # = = = = = & = = & = = = & - U ^.{.#X@XD.- -.i.f.f.f.f.",
"f.f.f.i.%.$ i i p f i 2 % N B.B.N.B.N.A.N.B.B.B.N.B.B.C - ) w.` 6 9.q.- @ = @ & = & # = = @ @ = @ @ * i i f h p u @ %.i.f.f.f.f.",
"f.f.f.i.=.2 m.)..X_./.G i m.J.L.J.L.J.K.J.L.(.K.J.K.J.B.0 ( w.` 4 9.q.7 r N S C C C C C C C C V g + % I T._..X).M.- =.i.f.f.f.f.",
"yXf.f.u.$.u ].qXqXqX@XU.u N.L.H.S.G.S.H.S.K.G.A.H.H.J.A.f ( q.` 4 9.q.- V L L L L L L X.L L L X.V + - Y.@XqXqXrX{.3 %.i.f.f.f.f.",
"f.f.yXp.%.2 6XeX3XqX#XU.0 H J.P.P.P.L.L.J.P.K.P.P.P.P.M.- ( r.` 6 0.q.2 V L L L L L T X.X.L L X.m o % U.@X5X3XeX1X2 %.i.g.f.f.f.",
"f.f.f.i.%.2 <XdX2X9X@XY.0 i b D D D D D D D D D D D D e % ) e.` 6 9.q.7 0 e k k k r t k s t j e * o * @.@XqX2XsX0X7 $.u.g.f.f.f.",
"f.f.f.i.$.2 6XeX3XqX@XU.0 y l l l h h j h g h h l g j q = ~ w.` + 0.q.= 0 l h j h h h h h l c c b l 0 U.@X5X3XeX7X2 $.i.yXf.f.f.",
"yXf.f.i.=.2 oXqX3X3X#X+.% m  .V.B.S.K.K.H.H.K.K.H.K.K.M.y : 1.' 4 ~ 2.g I J.K.K.J.H.J.K.K.H.B.V.V.k.0 U.#X5X3XqXXX2 %.a.yXyXf.yX",
"f.f.f.i.$.2 7XsX2XqX#XY.0 = 7 6 k M.J.H.J.H.K.K.K.K.K.H.X.i = 5 Q $ u G C.K.S.K.K.H.K.H.J...k ; 7 = - U.#XqX2XtX7X2 :.d.iXiXyXyX",
"f.f.f.i.%.2 XXqX3XqX#XU.- ~ 3.3.4 z J.H.H.H.H.G.K.H.A.K.H.M.e > Q q I S.H.H.H.H.G.S.K.G.J.z 5 3.9.~ - U.@XqX3XqXXX- ,.$X>XiXiXyX",
"f.f.f.i.%.2 ].5X3X9X@XY.- ~ 0.*.> j J.K.H.H.S.K.S.H.A.H.K.D.z 9 ^ i S.J.H.H.H.H.H.S.H.K.K.k > *.4.~ % Y.@XqX9XqX.X2 ,.$X>X>XiXuX",
"f.f.f.i.%.2 .XqX3XqX@XY.= + 6 4 g  .L.K.K.J.J.J.L.J.L.L.J.C.a / ^ j K.P.K.L.J.K.K.J.K.K.J.} g 4 4 + - Y.@X5X3XrX].2 ,.$X>X-XiXyX",
"f.f.f.i.%.2 ).qXrX3X+XY.- @   @ 0 z n c b b b v n c b v b k w / _ 2 x b x x x z x l z n v k w   o o 0 Y.+X5XrXqX).- ,.$X>X:XiXuX",
"f.f.f.i.%.1 F N.v.z.H N - - j k j i e e e e q q e j i q w @ @ ] ^ * e z c c x x x z x z x x b D D q % N H z.v.N.F % <.$X>X:XuXyX",
"f.f.f.i.%.= d D b v m a - N X.X.L L L L L L L X.L L L L C 0 @ 9 ! i ..J.L.K.J.K.J.L.J.J.J.J.K.L.J.G - i z b b D j = ,.%X:Xf.f.f.",
"f.f.f.i.=.2 !.3XqX2X`.U.0 N L L P L L L L L L X.T L P L A y @ / ! l S.L.H.H.G.H.H.A.K.H.H.H.H.H.L.B.0 U.`.2X9X3X!.- $.i.yXf.yXf.",
"f.f.f.a.%.2 XXqX5XqX#XU.0 j C A Z Z A A A Z A A Z Z A Z m 0 @ 5 Q a S.J.K.K.J.J.K.K.J.K.H.K.J.K.Q.x.q +.@X9X9XqX.X2 %.u.g.f.f.f.",
"f.f.f.i.%.2 0XeX2X5X4XU.0 @ % - % - % - - - % - % % - % * @ # / ^ q P H.H.S.A.A.H.S.A.A.H.A.A.H.C.C 0 U.@X5X2XsX7X2 $.y.g.f.f.f.",
"f.g.yXi.%.2 0XdX2X5X#XY.% o @ O O @ & + @ @ @ @ @ @ @ o & & # 9 ! % 0 u g f g g g g g g g g g g f % - Y.@X5X2XsX0X7 $.i.g.f.f.f.",
"f.f.f.i.$.2 oXrX3X5X4XU.0 t { l.k.k.k.l.k.k.k.k.k.k.k.l.} B 0 : : % O O X X X o X o o X o o o X X O - U.4XqX3XeX1X2 %.i.f.f.f.f.",
"f.yXf.i.%.2 _.3X5X3X`.Y.0 m.L.P.L.L.L.L.L.L.L.L.P.L.L.P.J.S.k > ! @ % k N m m k k m m m k m k m e = - Y.`.3XqX9X_.2 %.i.f.f.f.f.",
"f.f.f.i.$.- /.+X+X`.~.+.q } Q.P.J.L.L.L.L.L.L.J.J.L.P.L.L.F.z > ! @ 0 A X.X.X.O.P P P X.P X.Y L N & * @.~.`.+X|./.- =.y.f.f.f.f.",
"-X-X;X%X,.3 L O.Y P O.S 0 k J c.k.k.k.k.l.k.k.k.k.k.k.k.c.N 0 < 5 @ = e N V N N m V B N N N V m y = % S Y I Y O.L - <.$X>X>X>X>X",
">X;X>X&X8.- @ & & @ & = = $ $ @ $ @ O $ $ @ @ $ o = $ @ @ O = $ # = = = @ = = = = = = = = = = = = = = & $ $ & & @ $ 8.$X-X;XpX;X",
">X>X-X&X8.= O O O O & O $ $ $ @ @ @ @ @ @ $ @ $ $ @ O $ @ $ $ $ $ @ = $ $ @ O O @ O O O O O O $ $ & = O @ O $ O O 1 b.&X>X>X;X;X"
};
