/* XPM */
static char *_bc387ea224549df80c201c650941e064cLjrZ8pAR5cSBUo[] = {
/* columns rows colors chars-per-pixel */
"64 64 215 2 ",
"   c #7ED8BF",
".  c #77D4C2",
"X  c #77D3C4",
"o  c #77D3C6",
"O  c #77D5C5",
"+  c #75D6C5",
"@  c #78D3C2",
"#  c #7AD2C2",
"$  c #7BD3C3",
"%  c #7CD3C2",
"&  c #79D6C1",
"*  c #79D4C2",
"=  c #78D5C2",
"-  c #79D4C3",
";  c #78D5C3",
":  c #7BD4C2",
">  c #7AD5C3",
",  c #79D6C3",
"<  c #7DD4C1",
"1  c #7CD5C1",
"2  c #7FD4C1",
"3  c #7DD6C0",
"4  c #7FD7C1",
"5  c #7DD4C3",
"6  c #7CD5C3",
"7  c #7ED5C2",
"8  c #7DD6C2",
"9  c #7FD6C3",
"0  c #7ED7C3",
"q  c #78D3C4",
"w  c #7BD3C5",
"e  c #78D4C5",
"r  c #79D4C5",
"t  c #7AD5C4",
"y  c #79D6C4",
"u  c #7BD6C4",
"i  c #7BD6C5",
"p  c #79D5C6",
"a  c #7AD5C6",
"s  c #7AD6C7",
"d  c #7BD6C7",
"f  c #7CD4C4",
"g  c #7DD4C4",
"h  c #7DD5C5",
"j  c #7ED5C4",
"k  c #7ED5C5",
"l  c #7DD6C4",
"z  c #7FD6C5",
"x  c #7ED7C5",
"c  c #7CD4C6",
"v  c #7ED6C6",
"b  c #7FD6C6",
"n  c #7FD8C2",
"m  c #7FD8C4",
"M  c #7FD8C6",
"N  c #7CD4C8",
"B  c #83D7BD",
"V  c #81D6BF",
"C  c #89D7BD",
"Z  c #8BD6BF",
"A  c #8DD5BD",
"S  c #8DD7BC",
"D  c #8ED7BC",
"F  c #8DD7BE",
"G  c #8CD6BF",
"H  c #8FD7BF",
"J  c #82D8BF",
"K  c #84DABF",
"L  c #8AD8BE",
"P  c #8BD9BF",
"I  c #8ADABF",
"U  c #8CD8BC",
"Y  c #8DD9BD",
"T  c #8ED8BD",
"R  c #8FD8BD",
"E  c #8CD8BE",
"W  c #8DD9BF",
"Q  c #8EDABE",
"!  c #9BD6B6",
"~  c #9AD7B6",
"^  c #9CD7B7",
"/  c #98D8B6",
"(  c #98D9B7",
")  c #99D9B7",
"_  c #9BD8B6",
"`  c #9BD8B7",
"'  c #9CD8B6",
"]  c #9CD9B7",
"[  c #91D7BB",
"{  c #90D6BC",
"}  c #91D7BD",
"|  c #91D7BF",
" . c #97D7BC",
".. c #98D7B8",
"X. c #9AD7B8",
"o. c #98D7BA",
"O. c #9AD6BA",
"+. c #9BD7BB",
"@. c #9CD7B9",
"#. c #9CD7BB",
"$. c #98D7BC",
"%. c #98D6BD",
"&. c #97D8B8",
"*. c #96D9B8",
"=. c #94D9BA",
"-. c #97D8BA",
";. c #96D9BA",
":. c #97DABB",
">. c #90D9BC",
",. c #92D8BC",
"<. c #93D8BC",
"1. c #93D9BD",
"2. c #90D9BE",
"3. c #92D8BE",
"4. c #90DABF",
"5. c #94D9BC",
"6. c #94D9BD",
"7. c #96D8BC",
"8. c #97D9BD",
"9. c #96DBBC",
"0. c #90DCBE",
"q. c #91DDBF",
"w. c #93DCBE",
"e. c #94DDBF",
"r. c #99D8B9",
"t. c #98D9B9",
"y. c #9BD8B9",
"u. c #99D8BB",
"i. c #98D9BB",
"p. c #9CD9B8",
"a. c #9CD9BA",
"s. c #98D8BD",
"d. c #99D8BD",
"f. c #9AD9BC",
"g. c #98DBBC",
"h. c #98DABE",
"j. c #9CD8BC",
"k. c #81D4C0",
"l. c #80D5C0",
"z. c #81D6C1",
"x. c #82D7C0",
"c. c #83D7C0",
"v. c #80D5C2",
"b. c #81D6C3",
"n. c #83D6C2",
"m. c #82D7C2",
"M. c #84D6C0",
"N. c #85D7C1",
"B. c #84D5C2",
"V. c #85D6C3",
"C. c #84D7C3",
"Z. c #80D4C4",
"A. c #80D4C5",
"S. c #81D5C5",
"D. c #80D7C4",
"F. c #82D7C4",
"G. c #86D7C4",
"H. c #88D7C1",
"J. c #88D7C2",
"K. c #8FD7C1",
"L. c #80D8C0",
"P. c #83D8C1",
"I. c #80D8C2",
"U. c #81D9C3",
"Y. c #83D8C3",
"T. c #84D8C1",
"R. c #85D9C1",
"E. c #86DAC0",
"W. c #87DAC0",
"Q. c #87DBC1",
"!. c #84D9C2",
"~. c #87D9C2",
"^. c #87D9C3",
"/. c #86DAC2",
"(. c #86DAC3",
"). c #81D8C5",
"_. c #83D8C5",
"`. c #84D9C6",
"'. c #87D8C7",
"]. c #86D9C7",
"[. c #85DAC7",
"{. c #8AD8C0",
"}. c #8BD9C1",
"|. c #88DBC1",
" X c #8ADAC1",
".X c #89D8C2",
"XX c #89D8C3",
"oX c #88DAC3",
"OX c #8BDBC2",
"+X c #8DD8C1",
"@X c #8CDAC0",
"#X c #8DDBC1",
"$X c #8FDBC1",
"%X c #8CDAC2",
"&X c #8DDDC2",
"*X c #89D8C5",
"=X c #83D7C8",
"-X c #84D6C8",
";X c #85D7C9",
":X c #86D7C8",
">X c #89D7C9",
",X c #84D8C8",
"<X c #85D8C8",
"1X c #85D9C9",
"2X c #87D8C9",
"3X c #86D9C9",
"4X c #85D9CA",
"5X c #86D8CA",
"6X c #87DACA",
"7X c #90D5C0",
"8X c #92D8C0",
"9X c #91DBC0",
"0X c #90D8C2",
"qX c #92DCC1",
"wX c #90DCC2",
/* pixels */
"y.y.y.y.y.y.y.y.) y.>X2XoX2X2X2X2X2X2X2X2X2X2X2X[.2X>X2X2X2X2X2X).,X,X;X2X2X2X2X2X2X2X2X2X[.;X;X<.y.y.&.y.) O.y.&.y.&.y.&.f.&.y.",
"y.y.y.y.y.y.y.y.f.+X2X>X>X2X2X2X2X>X2X2X2X2X2X2X2X2X2X2X2X;X,X[.2X2X,X,X,X2X2X).>X>X2X2X2X2X;X;X3.&.y.&.8.y.) y.y.&.y.&.y.&.y.&.",
"y.y.y.y.y.y.y.) C c c 6 i : i : 6 6 6 6 : : 6 : i i : & : i $ . i i i i : : m : 6 c 6 6 n : i : v.3.O.p.f.y.p.j.&.y.&.y.y.&.&.f.",
"i c c i 6 c c c v.i 6 6 i n c c m 6 6 c m c m c i i : i O . $ w O . . : X O i i 6 c 6 6 i i : O 6 v.K oXw.qXw.9X&Xw.Q w.Q w.9X9X",
": : 6 6 6 6 c 6 i 6 c i 6 c i 6 6 6 6 6 6 6 6 6 : i i w X i i w : $ w i i X i i c 6 6 6 c 6 c 6 6 m ).T.T. XI T.oXT.I oX(.(. XoX",
"6 c 6 w f f % i i 6 : : 6 i : c c % 6 f 6 c 6 c c 6 f 6 c $ i : : 6 w 6 i : % c c i c c 6 6 c 6 c c D.6 I.).n   I.J 6 6 n n I.n ",
": : i : : : i : c m i c 6 6 m c 6 6 6 6 6 6 : : c 6 v.n I.v.C.T.I.v.).v.K I.c c m : : c 6 c c 6 n 6 6 : c c 6 6 6 c i c i m c c ",
"i 6 $ i i f $ w 6 i : m c 6 6 i 6 6 6 6 6 6 $ i 6 W y.p.y.y.O.) p.y.y.) ^ y.W v.c 6 c 6 c v.c 6 c i : i : . : i : : w . i . : : ",
"i : i : 6 6 6 6 6 6 6 6 6 6 6 c c c v.n i : . i S 8.O.~ y.&.y.f.y.y.y.&.y.y. .W : $ . i c 6 6 6 c % 6 : $ . : : : O : i $ $ $ . ",
"6 m 6 n n c n c 6 6 6 6 6 6 6 c 6 6 n c : i $ X &.y.y.y.y.y.y.y.y.y.y.y.&.y.y.o.: i X : c c 6 ).6 6 c c i i i 6 i : 6 6 $ i i $ ",
"c n n c c n 6 6 6 6 6 6 6 I.D.c c c 6 6 i : i i &.y.y.y.y.y.&.y.y.&.y.y.O.y.y.&.w . : i 6 % 6 6 6 6 6 6 $ i 6 c f 6 c c f f $ f ",
"6 6 6 6 c : 6 c c 6 6 6 6 6 c c 6 c m c : i i . S &.) y.8.y.y.y.y.y.&.o.) ) &.3.i i : O c 6 ).6 n c 6 6 c c c c c 6 6 6 c f f f ",
"c c 6 % f f f f c c c 6 6 6 6 c f f 6 6 : w i i c 8Xp.O.y.) ) p.~ &.p.y.y.O.+XD.% f i : i i 6 6 c c n c 6 c D.6 6 6 6 6 6 6 c c ",
"6 6 6 c f % f f 6 f 6 6 c 6 6 6 f f 6 6 : i : : c 6 D.I.v.v.T.I.C.I.v.C.v.m m n f f i : i $ c 6 6 n i n 6 6 c 6 6 6 6 c 6 c c v.",
"i $ f f $ i 6 w 6 : 6 c c D.6 6 6 6 c % i 6 : i 6 6 c 6 : i i : c : i f 6 : c 6 c 6 : i : 6 c 6 6 6 c c c 6 6 : m 6 w : i i 6 c ",
"$ O : $ O : $ . $ i 6 6 c c 6 6 6 6 6 6 c 6 m 6 i c : O X i : O i $ . i i . : c 6 6 : i 6 6 c 6 i c 6 6 6 c c i : i i . : : : : ",
"$ . : : i : . : : i & i : i i i w 6 f f f f f f c 6 6 : : i : : : $ i : i : c 6 f f f f f f f f 6 6 % c f 6 c 6 c : : O i X $ O ",
"c c 6 c i c c i c c : m c i i n f f f f f f f f 6 6 c 6 O : i 6 i f 6 6 $ 6 6 6 f f f f f f f f 6 6 f 6 6 6 6 : c : : 6 : i : c ",
"y.y.y.y.y.y.y.y.&.W c i c 6 6 6 f f f f f f f f 6 6 6 6 w 6 6 6 w $ 6 6 c c c c f f f f f f f f f f 6 6 c 6 i i 6 m 6 <. .y.y.y.",
"y.y.y.y.y.y.y.y.y.y.3.B 6 : 6 c f f f f f f f f c m 6 c c c c c % i c c 6 c 6 c f f f f f f f f f f 6 6 : w . : c I.3.) +.y.y.&.",
"y.&.f.&.y.y.&.y.&.y.8.I.: O . $ f f f f f f f f c I.c n 6 c c f c 6 6 6 m 6 6 6 f f f f f f f f f c n c 6 : i O c m &.y.&.&.y.y.",
"y.y.y.y.y.y.y.y.y.y.o.6 c : w i f f f f f f f f 6 6 n c 6 6 6 f 6 6 n c 6 6 6 6 f f f f f f f f 6 c c n : i : i 6 ).y.&.y.y.&.O.",
"y.y.y.y.y.y.y.y.y.&.<.B 6 X i i f f f f f f f f c 6 c c c 6 6 6 6 6 c c c c f f f f f f f f % 6 6 c v.c & : i X : I.8.y.y.f.&.) ",
"y.&.y.&.y.&.y.&.y.8.T.  w i i : f f f f f f f f 6 6 6 c D.c f f c c 6 6 f f f f f f f f f 6 c c f c c n i i . i c K T.8.&.O.p.p.",
"oX+X%X%X+X+X&X+X XoXv.v.6 : i i f f f f f f f f f f f f f f f f 6 : 6 6 6 m i c c 6 f f f f w $ f 6 c 6 : i : i 6 v.T.T.&X+X&X X",
"C.v.C.C.C.I.v.C.I.T.c m c 6 c 6 f f f f f f f f f f f f f f f f c 6 c : : : & c : w f f f f i : f 6 6 i c n c 6 6 c D.I.D.C.^.D.",
"c i c c c c c c : i 6 6 c 6 6 6 f f f f f f f f f f f f f f f f 6 6 c i w $ c c w $ $ $ $ $ $ w i : : i c n & i 6 c v.: i w f f ",
": i : : . : : O i : : c 6 6 6 6 f f f f f f f f f f f f f f f f 6 i : : : i O : X i X i w i X w : . i : n c c m 6 c i : . X i w ",
". : $ : O $ $ : i . : : m i 6 c f f f f f f f f f f f f f f f f i : i $ . $ $ : : i : : : : : : i X i : 6 n c c 6 6 : $ : $ : . ",
"w i f f i : f f i w c : 6 6 n c f f f f f f f f f f f f f f f f % c $ 6 i w i : c c i c c c c c w i i i c c : i c c c 6 i w w $ ",
"$ % c f w 6 % f 6 c 6 : 6 c 6 6 f f f f f f f f f f f f f f f f c D.v.I.C.v.B v.v.T.v.D.I.I.I.I.J v.6 6 c 6 6 c 6 6 6 c c 6 : i ",
"c 6 6 f $ c c 6 % f : i i : 6 6 f f f f f f f f f f f f f f f f 6 c J oX8.8.&.y.#.p.p.p.p.p.y.y.y.} oXv.i : 6 I.6 c 6 6 6 6 c c ",
"f f f f f f f f 6 6 6 6 c c m & 6 c 6 c 6 c : i c m c i c . $ $ c I.K 8.O.#.) O.y.&.y.&.f.y.&.f.O.y.Y v.c % % O i $ f f f f f f ",
"f f f f f f f f 6 c c 6 n m c i 6 6 6 : 6 : i i 6 c : m : i : . 6 J W 8.' ) O.p.y.y.y.y.y.y.y.y.y.y. .J i . i : 6 c f f f f f f ",
"f f f f f f f f c : c 6 c c : i : i $ $ 6 6 6 n 6 c : : 6 : i O 6 D.+Xy.) y.y.y.y.&.y.O.&.y.&.y.&.p.f.I.: i 6 i % f f f f f f f ",
"f f f f f f f f 6 c : c n 6 i : : . i X w i : c 6 6 c 6 i i i i c I.oX8.y.y.y.&.y.y.y.p.y.y.y.y.#.y.<.I.c O 6 & c 6 f f f f f f ",
"f f f f f f f f 6 6 6 c c 6 : : O : . , : . i c m i i 6 6 : i 6 6 6 J W <.f.O.' y.y.y.p.p.p.y.y.&.<.T.T.i 6 6 c f f f f f f f f ",
"f f f f f f f f 6 m n c 6 6 : c c c c : 6 c 6 f : c c 6 6 i : c 6 c D.6 n D.C.I.I.v.v.I.v.v.I.v.T.n c 6 6 6 c v.f f f f f f f f ",
"f f f f f f 6 c m c 6 c 6 c c I.T.I.T.T.I.).v.c B 6 c i c n 6 c 6 D.: i : : 6 6 i : : i i : : i i i $ c 6 6 & 6 f f f f f f f f ",
"f f f f 6 c % $ i : i : 6 I.T.oXW 3.f.p.' ) ) O.C.: i : 6 6 6 : 6 c i . O w w i X i X X i i X i : $ i : c c c 6 f f f f f f f f ",
"f f f f f f f f i : i . i 6 oX8Xy.y.y.y.y.y.y.y.y.H.% i i c 6 6 6 : i $ $ $ . $ : $ . i : : . $ . : c $ 6 6 6 i f 6 6 c 6 6 6 6 ",
"f f f f f f f f . i . $ 6 I.&X9Xy.y.&.y.y.&.y.&.&.y.c i : : c % c 6 $ i f f i w i $ w $ c 6 i w i $ 6 w 6 c % : 6 c c i c 6 6 c ",
"f f f f f f f f : i O : v.T.&X9X&.y.y.y.&.y.y.y.O.) X O i c : i f f f f f f f i 6 6 : i c 6 6 6 $ w : i f f $ $ % i $ i i i 6 D.",
"f f f f f f f f i i : : c I.oX8X9.&.y.y.y.&.y.y.+.C i : : i i : f 6 6 6 6 6 f : c c c c n c c c : : $ O : $ O : w : $ . . : 6 c ",
"f f f f f f f f 6 6 6 6 6 I.T.T.W &.+.) y.) y.&.S 6 : i 6 c 6 c i $ 6 6 6 6 6 6 6 v.n c n i n c c 6 : i : i O : O w O : : : i i ",
"f f f f f f f f 6 6 6 c c c ).I.I.C.C.C.J n ).c 6 w i i v.6 6 i f f f $ f f c 6 n c c n c 6 c n c 6 c : 6 6 c c $ 6 c 6 i 6 w i ",
"f f f f f f f f 6 c 6 6 6 c c : d i i w 6 6 : c i c i i c i 6 : f i w i f $ i c c 6 6 6 6 6 6 6 c 6 n I.T.I.C.v.v.C.C.B C.).c 6 ",
"f f f f f f f f c c 6 6 6 6 i . $ $ : O i i : : : i i % . w O . $ : $ . $ i : w 6 6 6 6 6 6 6 6 c c T.oX XW +X&X X+XW oX&X^.T.v.",
"f f f f f f f f f f 6 c D.6 c 6 : i . . $ . % c c c : i i $ $ $ . : : c O : 6 c c 6 6 6 i i . $ 6 I.oX3.8.y.O.&.y.&.&.) y.&X^.n ",
"f f f f f f f f f f c c c 6 c % : c : i f i 6 c n 6 i 6 6 6 : i c i : 6 6 6 c 6 6 c 6 : $ : w . 6 I.&X&.y.y.y.y.y.y.&.o.y.8.+XI.",
"f f f f f f f f f f f c f f 6 f 6 6 c 6 f f f f : c 6 v.v.I.T.I.T.).I.v.B D.m i c c $ w w : . i 6 T.W &.&.&.y.) y.y.y.y.) y.oXT.",
"f f f f f f f f f f f f f f f f 6 6 6 c f f f f 6 K.y.y.y.y.p.&.) ) y.y.y.O.3.6 c 6 i $ i i $ . % 6 oXy.O.y.y.) ) y.&.y.' y.oXD.",
"f f f f f f f f f f f f f f f f 6 6 6 6 i O O : W ' ) O.&.O.y.&.y.y.y.o.&.) y.W 6 6 % i : i i i c D.C.} +.+.y.y.y.y.y.O.f.3.I.v.",
"f f f f f f f f f f f f f f c c 6 c 6 ).c : $ . &.#.y.y.y.&.y.y.y.y.y.y.y.y.y.&.6 6 $ i i i $ : 6 c D.B S  .O.&.&.+.y.8.S I.D.6 ",
"f f f f f f f f f f f f 6 c D.c 6 f c c 6 : O $ ) y.f.&.y.&.y.y.y.y.y.y.&.f.O...: O . i i i 6 6 c m : i f c c i : : i : m : 6 c ",
"f f f f f f f f f f 6 c % 6 6 c c % 6 f f i : $ S O.y.y.y.y.y.f.8.y.) &.y.O.y.W i : X : : 6 6 6 6 6 i O i O : : : : : O O : c : ",
"w $ f i i $ 6 i 6 f 6 i : i % : 6 6 6 6 6 6 6 6   W y.' y.y.y.) ~ y.y.) ) y.+Xv.6 6 6 6 6 6 6 6 i i : i O . O i O $ : : . i : i ",
": i : : : i : : c D.: c m i 6 c 6 c 6 6 6 6 6 6 c c c 6 n v.C.v.I.v.v.I.K v.D.c 6 6 6 6 6 6 6 c : m : c i : $ % : : : : i : : c ",
"i % f f w 6 c 6 c 6 6 c : i c n 6 % c i 6 6 f f 6 c w i c 6 i : c 6 c c : i 6 c c 6 6 6 6 c 6 % c 6 : : c % i i i 6 6 c 6 6 c c ",
"6 c 6 6 6 6 : : i 6 c : i m i : 6 6 6 : 6 6 6 6 6 6 i w i : w X : : i w i i : 6 6 6 6 6 6 6 6 6 : 6 c i i : : i : c 6 6 6 6 6 6 ",
"c c c 6 i c c i B c 6 i : 6 c 6 6 m c n n c n i 6 n : O O : . i . . . i X X i i n c n c c n c 6 c c 6 : i c : i i i c c c : i 6 ",
") y.y.y.y.y.y.y.I c 6 c i i c 6 6 i 6 6 : : i : c c : : : i i : i i i O $ $ i : 6 6 i : : 6 6 i 6 S &.y.y.y.y.y.O.y.y.&.y.y.y.y.",
"y.y.y.y.y.y.y.y.+.+X2X2X>X2X>X>X2X2X2X2X2X2X2X2X2X2X2X2X1X,X2X2X;X2X,X,X,X2X^.2X2X2X2X2X2X2X2X2X3.&.y.) &.f.y.y.y.y.y.y.y.y.y.y.",
"y.y.y.y.y.y.y.p.O.f.4X2XoX2X^.2X2X2X2X2X2X2X2X2X2X2X2X2X1X2X2X2X).,X2X2X,X2X2X2X2X2X2X2X2X2X2X2X&.y.y.y.&.y.y.&.y.&.y.&.y.&.y.&."
};
