/* XPM */
static char *dd523d595c154f6fb66076853f835ac82YlZkue6Pm391WGR[] = {
/* columns rows colors chars-per-pixel */
"64 64 207 2 ",
"   c #010101",
".  c #070C0A",
"X  c #160C01",
"o  c #1A0B00",
"O  c #160202",
"+  c #1B1500",
"@  c #191900",
"#  c #131204",
"$  c #081616",
"%  c #191A19",
"&  c #280C02",
"*  c #201503",
"=  c #373101",
"-  c #25250B",
";  c #1B352D",
":  c #1B3531",
">  c #142924",
",  c #213F38",
"<  c #2A362A",
"1  c #4A2201",
"2  c #472E00",
"3  c #5A2D00",
"4  c #463200",
"5  c #483000",
"6  c #423D01",
"7  c #4F3900",
"8  c #473E1F",
"9  c #6E3B01",
"0  c #6D3701",
"q  c #1F423C",
"w  c #264238",
"e  c #324B38",
"r  c #414103",
"t  c #4C4301",
"y  c #5C4800",
"u  c #5E5202",
"i  c #6A4A01",
"p  c #664400",
"a  c #645B05",
"s  c #775801",
"d  c #6D6606",
"f  c #6F640A",
"g  c #4B4E2B",
"h  c #61572E",
"j  c #54622F",
"k  c #717320",
"l  c #232647",
"z  c #373B60",
"x  c #2F594F",
"c  c #32594F",
"v  c #2F5B51",
"b  c #315A53",
"n  c #3E5B56",
"m  c #304944",
"M  c #356158",
"N  c #3F4E61",
"B  c #3E6962",
"V  c #424242",
"C  c #435D4E",
"Z  c #5A5A58",
"A  c #4E4E50",
"S  c #416149",
"D  c #6D6745",
"F  c #457B6D",
"G  c #457B72",
"H  c #7E7E7D",
"J  c #696B68",
"K  c #535878",
"L  c #B61C1B",
"P  c #823C01",
"I  c #A52921",
"U  c #CE271F",
"Y  c #EE3B1D",
"T  c #DA072B",
"R  c #DC082F",
"E  c #E62323",
"W  c #EA2E2B",
"Q  c #FF342D",
"!  c #FF3534",
"~  c #FF3D39",
"^  c #EB132B",
"/  c #884901",
"(  c #875401",
")  c #A75301",
"_  c #9E6600",
"`  c #877804",
"'  c #926B00",
"]  c #A46300",
"[  c #F44715",
"{  c #F35113",
"}  c #F05D08",
"|  c #D37701",
" . c #FE6801",
".. c #FD7B00",
"X. c #FE7501",
"o. c #FD403A",
"O. c #827952",
"+. c #FF4A42",
"@. c #4A8376",
"#. c #498478",
"$. c #478377",
"%. c #669176",
"&. c #958508",
"*. c #988706",
"=. c #92930F",
"-. c #AD9908",
";. c #A28F05",
":. c #BBA608",
">. c #BDBD15",
",. c #B2A018",
"<. c #CD8D00",
"1. c #CD8300",
"2. c #CB9200",
"3. c #C89D01",
"4. c #DD8E00",
"5. c #FF8E01",
"6. c #FF8102",
"7. c #FF9302",
"8. c #FE9B01",
"9. c #C7B307",
"0. c #D4BE0D",
"q. c #D5BD06",
"w. c #D5BD10",
"e. c #FFA601",
"r. c #FFAC00",
"t. c #F0A800",
"y. c #FFB400",
"u. c #FEBC00",
"i. c #F0B501",
"p. c #E9B700",
"a. c #C8C119",
"s. c #E5CD0E",
"d. c #FEC300",
"f. c #FECB01",
"g. c #E6D60D",
"h. c #FFD401",
"j. c #FFDC01",
"k. c #F6D909",
"l. c #E5CA11",
"z. c #E5D617",
"x. c #FEE301",
"c. c #FFEB01",
"v. c #FFEC0E",
"b. c #FFE60E",
"n. c #FEF400",
"m. c #FEFC00",
"M. c #FDF50F",
"N. c #FCE212",
"B. c #FEEC13",
"V. c #FFEE1B",
"C. c #FFF314",
"Z. c #FEFC14",
"A. c #FEF21D",
"S. c #FEFE1B",
"D. c #E0E01C",
"F. c #FFEF21",
"G. c #FEF323",
"H. c #FEFE23",
"J. c #FFF42B",
"K. c #FFFD2C",
"L. c #FFFE33",
"P. c #FFFF3B",
"I. c #FEF430",
"U. c #A19543",
"Y. c #AEA353",
"T. c #57998B",
"R. c #5B9D93",
"E. c #758D8A",
"W. c #5DA296",
"Q. c #63AC9D",
"!. c #78AB90",
"~. c #6DBBAB",
"^. c #67B3A4",
"/. c #70B7A9",
"(. c #63ADA0",
"). c #6EC0B1",
"_. c #73C5B5",
"`. c #7ACBBA",
"'. c #7BD7BF",
"]. c #6FC2AE",
"[. c #77D4C3",
"{. c #7CD5C4",
"}. c #7DD6C6",
"|. c #888888",
" X c #969797",
".X c #82B8A0",
"XX c #BDBDBC",
"oX c #8BC2A5",
"OX c #82D6BE",
"+X c #8CD7BD",
"@X c #8DD8BD",
"#X c #84DABF",
"$X c #9AD8B7",
"%X c #9AD7B9",
"&X c #93DABD",
"*X c #9AD8B9",
"=X c #97D8B9",
"-X c #FDF8A9",
";X c #82D6C2",
":X c #8AD7C6",
">X c #85D9C4",
",X c #8BDAC2",
"<X c #85D7C9",
"1X c #89D7C9",
"2X c #86D8C9",
"3X c #91D9C1",
"4X c #FFFFFE",
/* pixels */
"*X%X%X%X%X%X%X%X$X*X2X2X:X2X>X2X<X1X<X2X1X2X2X1X2X2X1X2X<X2X<X2X<X<X<X<X2X2X2X2X<X1X<X1X2X2X<X<X=X%X%X%X*X*X*X*X*X*X$X$X*X*X*X=X",
"%X%X%X%X%X%X%X%X%X3X<X<X1X2X2X1X<X:X1X2X1X2X2X:X2X2X>X2X<X<X2X>X2X<X<X2X<X>X2X2X1X1X1X<X2X2X<X<X,X%X$X=X*X*X*X*X*X*X$X$X*X=X*X$X",
"$X*X$X*X%X%X$X$X+X}.}.}.{.{.}.{.{.{.{.{.{.{.{.'.}.}.}.{.{.{.{.[.}.}.[.[.{.{.}.{.{.{.{.{.}.}.[.[.;X@X%X%X*X*X*X*X=X=X=X&X*X*X=X$X",
"}.}.}.}.{.{.{.{.;X}.{.{.}.{.}.}.;X{.{.{.{.}.}.}.{.{.[.{.[.[.{.{.[.[.[.}.[.}.[.{.}.{.{.{.}.}.{.{.}.;X#X+X3X&X&X&X&X&X&X,X&X&X,X,X",
"{.{.{.{.{.'.{.{.{.{.}.{.{.{.}.{.{.{.{.;X{.{.{.{.{.{.}.{.[.[.[.{.[.{.[.}.[.[.}.[.{.{.{.{.{.{.{.{.{.}.;X>X#X#X#X,X>X,X,X#X,X,X,X,X",
"{.{.{.{.{.{.{.{.}.{.{.{.{.{.{.}.{.{.{.{.{.{.{.{.{.{.{.{.{.{.{.{.{.{.}.}.}.{.{.}.{.{.{.;X{.}.}.{.{.}.}.}.;X>X}.'.#X'.}.'.}.'.#X}.",
"{.{.{.{.{.{.{.{.{.}.{.{.{.{.{.}.'.{.{.{.{.{.{.{.}.}.{.;X;X;X>X>X;X;X;X;X;X;X}.}.{.{.{.{.{.{.{.{.{.{.{.{.{.{.{.{.}.}.}.}.}.}.}.}.",
"{.{.{.{.{.{.{.{.{.{.{.{.{.{.{.{.{.{.{.'.{.{.{.{.{.@X*X$X*X%X%X=X$X$X*X$X$X=X@X;X{.{.{.{.{.}.{.{.{.}.{.{.{.[.'.}.{.[.}.[.[.}.[.[.",
"{.{.{.{.{.{.{.{.{.{.{.'.{.{.{.{.{.{.{.}.{.{.[.{.@X*X*X*X%X$X%X%X%X$X%X%X*X*X*X&X<X[.}.{.}.}.}.{.{.}.{.[.{.[.[.{.[.{.{.{.[.{.[.{.",
"{.;X{.}.{.;X{.{.{.{.{.{.;X{.{.{.{.{.;X}.{.{.{.[.$X%X*X*X%X%X%X$X$X%X%X%X*X3X$X*X{.{.[.}.}.}.}.}.{.{.{.{.{.[.[.{.{.{.{.{.{.{.{.{.",
"{.{.;X{.{.{.;X{.}.{.{.{.{.{.;X}.{.;X{.;X{.[.}.[.=X%X%X*X$X*X%X$X*X%X!.          .               m [.{.{.{.{.{.{.{.{.{.{.{.{.{.{.",
"{.{.{.{.{.{.{.{.}.'.'.{.{.{.}.}.{.{.{.{.{.{.[.}.@X*X$X$X*X$X%X%X%X=X!.                          m }.;X{.{.{.{.{.{.}.{.}.{.[.{.{.",
"{.{.;X{.{.{.{.{.{.{.{.{.{.{.{.{.{.{.{.{.{.{.{.{.}.,X*X%X%X%X%X%XoXoX%.O o X X X X X X X X X # # w ~._.[.{.;X{.{.{.{.{.{.{.;X{.{.",
"{.{.{.{.{.{.{.{.{.{.{.{.{.{.{.{.{.{.{.{.{.{.{.{.{.{.>X{.>XOX>X`.    1 r.7.r.f.u.d.u.d.u.y.f.B.K.-.    B {.[.{.{.;X{.{.{.{.{.{.{.",
"{.{.{.{.{.{.;X{.{.{.{.{.{.{.{.{.{.{.{.{.{.{.{.{.{.{.{.{.{.{.{.{.    & r.5.r.h.f.f.f.f.f.d.h.Z.L.-.    F {.;X{.{.{.{.{.{.{.{.{.{.",
"[.{.[.[.{.[.[.[.[.[.}.{.;X{.;X{.'.{.{.{.{.{.{.{.{.{.{.[.{.Q.T.T.4 4 ( d.r.u.h.f.f.f.f.f.f.f.B.G.9.6 r n R.R._.{.{.[.{.{.[.{.[.{.",
"{.[.[.[.{.{.[.{.{.{.[.[.{.{.}.{.{.{.{.{.{.{.{.{.{.{.{.[.[..     f.j.x.J.G.A.F.F.F.A.A.V.F.A.B.B.C.Z.L.&.    T.{.{.{.{.{.{.{.[.{.",
"{.;X{.<X{.{.{.{.}.{.}.}.}.}.{.{.{.{.{.{.{.{.{.{.{.}.{.{.}.>     y.f.f.G.A.B.B.B.B.B.V.B.V.B.B.B.v.C.H.`     R.'.}.{.{.{.{.{.{.{.",
"%X%X%X%X%X%X%X%X=X&X}.{.{.{.{.{.{.{.{.{.{.{.{.{.}.}.W.F G a s s f.j.j.V.B.B.B.B.B.B.B.B.B.B.B.B.B.B.H.`     T.{.{.{.;X@X%X%X%X=X",
"%X%X%X%X%X%X%X%X$X*X@X;X{.{.{.{.{.{.{.{.{.{.;X{.[.}.w     y.M.x.A.J.A.v.v.B.v.v.B.B.B.B.B.v.B.v.B.B.H.`     W.{.{.;X3X$X$X$X%X%X",
"*X%X*X$X%X%X%X%X$X%X=X;X{.[.[.{.{.{.{.{.{.{.{.{.{.{.b     y.m.x.c.V.C.H.H.m.c.c.m.H.S.C.B.B.B.N.Z.H.P.`     ^.{.}.<X*X*X$X*X*X*X",
"*X*X*X*X%X%X*X%X$X=X=X}.{.{.[.{.<X{.{.{.{.{.{.{.{.{.x     y s s N.H.l.d d Y.-X-XU.d d k.C.B.B.S.q.d f O. X Xn b M }.*X*X%X$X*X=X",
"$X*X*X*X*X*X*X*X=X%X=X;X{.{.{.{.`.}.{.{.;X{.{.{.}.}.v           N.K.:.    K 4X4Xz     l.H.B.B.H.*.    E.4X4XA     ;X&X$X%X*X*X*X",
"*X*X*X%X*X%X%X%X=X=X<X{.{.{.{.{.{.}.`.{.{.{.{.{.{.{.b           C.L.q.    J 4X4XZ     B.H.S.S.L.:.    H 4X4XV     {.>X=X*X%X*X%X",
"3X,X,X,X:X:X:X3X:X:X;X;X{.[.{.[.}.}.}.{.[.}.[.{.{.{.b     *.>.:.t r j XXXX|.V V #     = 6 6 6 r h XXXXH V V .     ;X#X>X#X,X@X,X",
">X>XOX>X;X<XOX;XOX;X;X{.{.{.{.;X}.{.{.{.}.<X{.<X[.}.b     k.P.S.    l 4X4X X                    N 4X4X|.          }.}.;X#X>X#X>X",
"}.{.{.;X;X{.{.{.{.{.{.{.;X{.{.{.{.{.{.{.[.[.}.}.{.{.b     w.H.N.    V 4X4X|.                    Z 4X4XH           }.}.}.{.{.{.{.",
"{.[.{.{.[.[.{.{.{.[.{.[.{.{.{.{.}.}.{.{.}.[.}.}.}.{.b     w.S.B.g.z.,.% % .           U ! W W ! I % % .           }.}.[.[.}.[.{.",
"[.{.[.{.[.{.[.[.[.[.{.{.{.{.{.{.{.{.}.}.}.{.}.}.}.}.M     a.S.v.Z.L.9.                ! +.~ ~ +.L                 {.{.{.[.[.[.{.",
"{.{.{.{.{.{.;X{.;X{.{.{.{.;X{.;X}.{.}.}.`./.~.~.~.~.m     0.S.C.B.S.9.@ + + @ + + + + W ! Q ! ~ L O O O o o       {.{.{.{.{.{.{.",
"{.[.{.{.{.{.{.{.{.{.{.{.{.{.{.{.}.}.`.}.(.                0.S.B.B.B.v.B.B.B.B.G.f.d.d.Y T E E E E E R  .y.r.1     }.{.{.{.{.{.{.",
"{.{.{.{.{.{.{.{.{.{.[.{.[.{.{.{.{.{.}.}._..               a.L.G.B.v.M.Z.C.Z.Z.K.h.f.f.E T T R T R ^ R  .h.f.3     }.;X{.{.{.{.{.",
"{.{.{.{.{.{.{.{.{.{.{.{.[.{.{.{.}.}.W.R.@.6 6 6 6 6 6 6 6 p.x.h.v.B.B.B.B.B.B.F.h.h.f. .[ [ { { [ [ Y } 1.| g : : }.}.{.[.{.{.{.",
"{.{.{.}.{.}.}.}.{.{.{.{.}.{.{.{.{.}.    = H.H.S.Z.S.Z.H.H.r...7.b.A.B.B.B.B.B.B.V.G.V.h.f.k.h.j.d.8.u.s     (.[.[.}.}.{.}.{.{.{.",
"{.{.{.{.{.{.{.{.}.{.{.{.{.{.{.[.[.{..     Z.Z.C.C.M.B.A.A.8.X.7.A.K.G.G.J.G.G.G.A.V.V.f.u.d.f.f.y.5.r./     R.}.}.<X[.}.{.{.{.{.",
"{.{.{.{.{.{.{.{.{.{.{.{.{.}.'.T.G G f d &.C.B.B.B.B.B.B.B.f.y.u.f.f.f.j.j.j.j.h.x.G.B.d.u.d.d.d.y.e.f.(     R.[.}.[.}.}.{.{.{.}.",
"{.}.[.{.{.{.}.}.{.{.{.{.{.{.{.$     C.L.S.B.b.B.B.B.B.B.B.G.K.A.7...8.d.y.d.y.y.j.I.B.d.u.d.d.u.f.f.c.'     R.}.}.{.{.{.{.{.}.{.",
"{.{.{.{.{.{.{.{.{.}.}.{.{.{.{.q     s.Z.B.B.B.B.B.B.b.B.B.B.A.b.7...7.u.u.y.u.y.x.P.G.f.u.d.d.d.u.u.c.s     /.[.{.{.{.}.{.{.{.{.",
"{.{.{.{.{.}._.v x b b c x b b k =.*.N.A.B.B.v.B.B.B.B.B.B.v.A.B.f.d.h.j.h.j.j.j.h.h.h.d.d.d.u.d.d.d.h.4.) ] g b b }.}.{.;X}.{.{.",
"{.{.{.{.{.}.~.                s.L.H.B.v.B.B.B.B.B.B.B.B.B.B.B.B.G.H.G.G.J.G.J.P.f.y.i.d.d.d.d.d.d.d.d.u.r.f.3     ;X{.{.{.}.{.{.",
"{.{.{.{.{.{.[.                :.S.B.B.B.B.B.B.B.v.B.B.B.B.F.G.V.B.B.B.B.B.B.B.G.f.u.d.d.d.d.d.d.f.d.f.y.5.e.1     }.}.{.}.{.{.{.",
"{.{.{.{., ; < | | | 2.2.<.<.<.k.G.B.v.B.B.B.B.B.B.B.B.B.V.h.d.h.v.C.B.B.B.B.B.G.h.y.d.d.d.d.d.d.u.u.d.y.y.f.2     {.}.}.{.{.{.{.",
"{.{.}.{.    & r.y.y.x.x.x.j.h.n.K.Z.M.Z.C.B.v.B.B.B.B.G.A.d.r.u.c.V.B.B.v.B.V.J.h.u.d.d.d.d.d.d.d.d.d.f.f.x.4     }.}.}.{.{.}.{.",
";X}.{.{.    o 8.8.r.f.f.d.d.y.x.G.B.B.B.B.B.B.B.B.B.B.B.B.f.u.d.v.V.B.B.B.B.B.F.f.y.d.d.u.d.d.d.d.d.u.u.f.j.2     }.[.[.{.[.{.{.",
"}.{.{.{.    + u.f.u.d.u.h.A.n.u + + + + t C.C.B.B.G.d.7.8.j.v.c.B.B.B.B.G.j.d.f.f.u.f.u.d.d.d.d.d.d.d.d.f.h.2     {.[.{.[.[.}.}.",
"{.}.{.{.    * j.x.h.y.y.h.L.H.#           H.H.Z.S.L.d.X.6.j.L.A.B.b.B.V.K.j.y.u.d.d.u.d.d.d.d.d.d.d.u.d.f.h.2     {.{.{.}.[.{.{.",
"}.{.}.{.$ $ - t.i.y.f.f.j.G.S.u + @ @ @ r g.g.s.s.z.y.8.8.x.G.B.B.B.v.c.B.h.u.d.d.d.d.d.d.d.d.d.d.u.d.d.d.h.5     ;X>X>XOX>X{.{.",
"{.{.}.}.}.}.~.    y S.B.B.B.B.B.B.C.v.S.a.          *.H.B.B.B.B.v.G.x.y.d.d.d.d.d.d.d.d.d.d.u.d.d.d.d.d.f.j.4     ,X,X@X,X#X>X}.",
"{.{.{.{.{.{.].    u P.K.Z.v.B.C.Z.C.Z.H.0.          ` K.V.F.G.G.G.L.c.y.u.d.d.d.d.d.d.d.d.d.d.d.d.f.f.h.c.n.7     $X%X*X%X3X,X>X",
"{.{.}.{.{.{._.: ; g >.9.s.A.B.B.B.B.v.S.l.6 6 6 6 6 :.H.B.x.j.x.j.x.j.u.u.d.d.d.d.d.d.d.d.u.d.d.u.y.y.t.3.3.g < , $X%X*X*X*X,X;X",
"{.;X}.{.}.{.{.{.}.T.    f H.B.B.B.v.B.B.C.S.Z.Z.S.Z.C.B.V.f.y.u.u.d.d.d.d.d.d.d.d.d.u.d.d.d.f.f.y.7.y.P     !.=X%X%X*X*X$X$X,X;X",
"{.{.{.'.{.{.{.{.}.@.    ;.P.H.H.K.H.H.S.H.B.C.B.C.v.G.I.J.h.u.d.d.d.d.d.d.d.d.d.d.f.f.f.f.f.c.n.h.r.h.)     E.%X$X$X$X*X$X*X,X}.",
"{.}.{.{.{.{.{.{.{.(.b b j =.&.&.&.*.&.*.-.M.B.B.B.V.x.h.j.f.u.d.u.d.d.d.d.d.d.d.y.r.y.r.y.r._ ' _ ) _ h C C .X$X%X$X$X=X*X@X<X}.",
"}.{.{.{.{.{.{.{.}.}.<X{.G                 Z.C.C.B.G.h.y.u.u.f.d.d.d.d.d.d.f.d.f.e.5.7.7.t...          F @X=X%X%X%X$X=X=X@X#X}.}.",
"}.{.{.'.;X{.{.{.{.{.{.{.b               = H.H.S.H.L.n.j.j.j.x.j.x.j.x.x.j.j.x.x.u.r.r.y.d.8.          v {.{.{.[.}.{.}.{.'.{.'.{.",
"{.{.{.}.}.{.{.{.{.{.}.}.(.#.$.$.#.#.    # a a a a a i p i i i i i p i i i i i i 9 0 0 0 9 9 $.#.#.@.@.Q.{.{.{.'.[.{.[.{.{.{.{.{.",
"{.{.{.{.{.{.{.{.{.{.{.{.[.{.'.{.{.{.$                                                     $ }.{.{.{.[.{.[.[.[.}.{.[.{.{.[.{.{.{.",
"{.[.{.{.{.{.{.{.{.}.{.{.}.{.{.}.{.'..                                                     $ {.;X{.}.{.{.{.{.{.{.{.{.{.'.{.{.{.{.",
"{.{.{.{.{.{.{.{.}.{.{.{.{.{.{.{.}.{.{.'.{.}.{.{.{.{.{.}.{.{.[.}.{.{.{.{.{.{.{.{.{.{.{.{.{.{.{.{.{.{.[.{.}.{.{.{.{.{.{.{.{.{.{.{.",
"{.{.{.'.{.{.{.{.{.{.}.{.{.}.}.{.{.{.{.{.{.{.}.{.{.{.{.[.{.[.}.[.{.[.{.[.[.{.{.{.{.{.{.{.{.OX}.{.{.{.}.{.{.{.[.}.{.{.{.{.{.'.{.{.",
"{.{.{.{.<X}.{.}.OX}.{.{.{.}.{.}.{.{.{.{.{.{.{.{.{.{.{.[.[.[.}.[.{.[.{.[.{.[.{.{.{.{.}.{.{.{.{.{.{.{.{.{.}.}.{.{.{.{.}.{.{.{.{.{.",
"$X%X%X%X*X%X$X$X+X}.{.}.{.{.{.'.{.{.{.{.}.{.}.{.{.{.{.{.}.[.[.}.{.{.{.{.{.{.{.}.}.}.{.}.{.{.'.{.{.+X*X%X*X*X*X*X%X%X*X*X%X%X%X%X",
"%X%X%X%X*X*X%X%X*X,X2X2X1X2X>X1X2X1X2X2X2X2X2X1X2X>X<X<X2X2X>X<X<X<X<X<X2X>X<X<X2X2X2X2X2X2X<X2X&X=X$X$X*X*X*X=X$X*X*X%X%X%X$X%X",
"$X%X*X*X%X%X%X%X%X*X2X2X:X2X1X2X:X1X2X:X>X1X2X2X1X:X2X2X2X2X>X<X<X<X<X<X<X2X:X<X2X2X1X:X1X>X:X<X=X%X%X$X*X$X$X=X%X*X*X*X$X=X%X%X"
};
