/* XPM */
static char *_775d9b89998484fd94b02e85f34c1a7SiAC8lzoyHheTgWn[] = {
/* columns rows colors chars-per-pixel */
"64 64 48 1 ",
"  c #92BF58",
". c #93C057",
"X c #95C25B",
"o c #9AC45C",
"O c #9FC85E",
"+ c #A1C75D",
"@ c #A1C85E",
"# c #9FC860",
"$ c #A1C760",
"% c #A4CA61",
"& c #ABCE64",
"* c #B0CF67",
"= c #AED066",
"- c #B4D366",
"; c #B9D567",
": c #B6D469",
"> c #B9D469",
", c #BED86B",
"< c #B6D470",
"1 c #B8D470",
"2 c #B2D77F",
"3 c #B1D87F",
"4 c #C1D66B",
"5 c #CAD76C",
"6 c #C5DA6C",
"7 c #CADB6D",
"8 c #D1DA6D",
"9 c #DEDF6E",
"0 c #CBDF70",
"q c #DDDE71",
"w c #E1DF6E",
"e c #E1DF70",
"r c #CEE26F",
"t c #D0E16F",
"y c #DDE06E",
"u c #CDE170",
"i c #D0E371",
"p c #DEE170",
"a c #E4E06F",
"s c #EAE26F",
"d c #F1E56F",
"f c #E5E070",
"g c #EEE271",
"h c #F3E372",
"j c #F9E472",
"k c #ACD684",
"l c #B2D781",
"z c #B1D882",
/* pixels */
"::<<-:1:11:<<111111<<<:<<<<:<<<:<<<<<<<<<,<<<<:<<:<<:11:<::11:1>",
">>;;>>>>>:,>::>,>>>,,>,>:>:>>>>>>>>::>:>>>:>:,>:,;::;;>;>>;:>;>>",
">>>>>>>->>>>:>>>>>1>>>>>>>>>>>>>>>>>>>>>;>;;>,;;>>,>>>>>,>>>>>>>",
">>>>>>>>>>>4>,:-*----=--:,>>:>>>>>>>>>>>:>>:--::>>>>>>>>:>>>:>:,",
">>>>>>>>;>>;,>&O###$####=>,;;>;;>>>>>>>>>;>>:;>>>:>>>>>>;>;>>;;>",
">>>>;>>>>>:=-*$XXX     X%*>>>>>>>>>>>>>>:->775>-;>>>>>>:>>>>>>>>",
";;;;;;;;,:&@@@oX Xo  #XXo@=;>;;;>>>>->>>:>5qsw7>;;;;>,;;>>>>>>>>",
">>>>>>>>;=@XXXXXX#XXo XXXX@,,>:>>>>>>>>>>6pgjhw5>:;>>>;--;;>>:;>",
">>>>>>:>=oXXXXXXXoooX##  X&>,>:,>>>>>>*>5eshhhge7,:>>>:--:>>>>>;",
">>>>>>>>%..X#.XXoXXXXX #X.&>>>>;>>>>>>>>8wehjdge8>:>--,5564>;>,>",
">>>>>>,>%..XXXX#oXXXX#  XX&>,>>;>>>>>>*>45wjjhw84;>>::69ff7;:>;;",
">>>>>>>>&O#XXXXXXXXX X #o@&>>;>>>>>>>>>>:-5esw7>->>:>59gjda74>:>",
">>>>>>>>:=#.XXX XXXXXXXX$->>>>>:>>>>>>>>:-,656>;->::5wggjhgf8;;;",
">>>>>>:>>:&O####O#%O@@@%*>4>;;>,>>>>*>>>;;:::::;>>:>5qghhhsa7,-:",
">>>>>>>>>,:-=-=**--=--&->;>>>;;;>>>>>>>>:,:;;:-,:,:;,59hjha8,>:>",
">>>>>>,>,>>,>,1:>>>,>>----=->>,>>>>>>>4>>>>:;::>>:>>:-69aw8;-:,:",
">>;>>>>>:,>,>>>,;>>>4,=O##o#=>>>>>*>>>>>,;>;>;>:;>>;;->656>;;:>>",
">>>>;>>*=*=-=-:>>>>>;=@X X.X%=:>>>>>>>>>;;::>;:::::;;>>;-:>>>>;>",
">*>>4>&+#o##O%=:,>,:=#XX#XXXX#=:>>>>>>>>;:,;,:>>:>;>>>:-::>>>>;>",
">>4>-&@ XXXX.X%->>,;%..XoXXX.X&:>>>>>>>>;>;:-->555>::>;>>>>>>>>>",
">;>:&$XXX.XXXXX%=>,:%.XXoXXX X%>4>>>>>>;:>>>--5qsa5;-:>:;;;;;>>>",
">;,-$ .oXX#.XX.X@,,:=#XXXXXXo@*;>>>>>>>>;>:>,0qgjha7,;;:>:>>>>>>",
">>,;%X.X#XXXXX.X=>,;-*%. XXX%=->>>>>>>>>>:;;5fgghhga84;;>>>>>>>>",
",;:-&OXXXXXXX#X%=>>,,:&#OOOO=>>>>>>>>>>>;:-;7fghdhgf7>;;:>>>>>>>",
">;>>:-O  Xo .X&=;>>>>4>-*-*->>,;>>>>>>>>>:>>>7ygjhw54>>>>>>>>>->",
",>>>,>&O$@$$O@*:,>>>>>:>:>>>>>>>>>>>>>>>>>>>;;5fww8>*>>;>>>>>>>>",
">>>>>>--*--&=-;,>>>>>>>,>4>>>>>>>>>>>*>>>>>:--,655;>>>;>>>>>>>>>",
">>>>;>>>>>>>>>:;>>>>>>:>>>>>>>>>>>>>>>>>>:,>>>::-;>>>>>>>>>>>>>>",
">>>;>>>>,,,;>>>>>>>>>>>>>>>>>>>>>>>>>>>>:>>>>>:--;>;;>>>>>>*>>>>",
">;;;:,>;;:;;>>>>>>>>>>>>>>>>>>>>>4*>>>>>>>>;>>>>>>;>>;>>>>>>>>>>",
">>>;>>>;:>>>>,>>>>>>>>>>>>>;>>>>*4*4>>>>>>>>>>>>;;>>>>>>>>>>>>>>",
":>;;>>>;>>>>>>>>>>>>:>>:>;,>>>>>>>>>>>>>>>>>>>>>>>>>->>>>>>>>>>>",
">>>>>>>>;;:>:;,:>>:>>>:>>>>>>>>>>*>*4>>>>>>>>>>>>>>>>>>>>>>>>>*4",
">>>>>>>>;>;>>;;>>>>>>;>>>>>>>>>:>4>>>>*>>>>>>>>;>>>>>>*4>>4*>>>>",
">*>>>>>>>>>>>;>>:>:>>:>:>>>>>>>,>*4>*>4>>>>>*>>>>>>>4>>>*>>>>>>>",
">>>>>>>>>>>>>>>:>;>>>;>;>>>>>>>>>>>>4>>>>>;>>>>>>>>>*>>>4>>>>4*>",
";>>>>>->>>>>>:>;:;:>:::>>>>>>>>;>>4*>>>>>>>>>>>>>>>>>>4>4*>>>*4>",
">>>>>>>>>>;>:>;,,,,,,,,,>>:->>>;>>>>>>4*>>>>>:,>>>>>>>*>>>>4>>>>",
">>>>;>>>;,>>>>67u67u6uu7,;;:>>>>>*>>*>>>>>>>;:::>>>>>4>>>>;*>>>>",
">>>>>>>>>>>>:66iurrrruui6,,,>>;>>4>>4>>>>>>::;;;>>>*>*>>>>>>>4*>",
"*>>>>>*4>,;;4uurrrrrrrrrruuu,-::>>>>>*4>*;>>>>:;>;>>->>>>*>>*>>>",
">>4*>>>>;::;6uiuuuuuuuuuuuuuu,,;>>*>>>>>4-*>>6564*>>;>>>>4>>4>;>",
">>>>>4>>>>:,6iiuuuuuuuuuururuu::*>4>>>>>;>-;5yaw8;*>;;4>>>>>>>*4",
">>>>>*>>;>:;6iiuuuuruururrruuu6:>>4>>4*>>;45qhjhw54;>>;;>>*4*>>>",
"*>>>>*4>;>;>uuiuuuuuuuururruuu6>>>4>>>>>-;5eghhhdw84*;4->>*>4>>>",
"4>>4>>>>;>:;,uuurrrrrrrruuuruu4>*>4*>>4*:-7eghhhew84>>>>>>4>>>4*",
">>>*>>>>>>>::,6uriuriirruuuu0,>>4>>>*>>>>>459gjge84;>>>>;*>>*>>>",
">>>>>4*>::;;::46u7u60606u6ur4::>>>>>4>>>>>-:59ff5>->>;;>>4>>4>>>",
">>>->>>>>>::;->,,,4,44>4,4,,>>>,>>>>>->>>>:;,475>;->>>>>>;;>>>>,",
">4>>>>>:;,,,,,,>>::::;>:;;:,>>->>>>>>>>>;:>>,:::>>:;--->>>>:>>:;",
";>>>>:::46uruu06,::>;;:;;>;:>>>>>>>>>>>>;;>>:::->>>:>>;;:::>;;:>",
">>>>:>,,rrurruuu6,>>>>>>::>>>>>>>>>>>>>>>>>>>>>>:-,675>;-,>>;;>>",
"*4>-;;6uurrrrruuuu,>;>>:>>>>>>>>>>>>>>>>>>>>>>>;-:5ygw7>-:>>;;>>",
">>>>-46iuuuuuuuuuu,::>>>>>>>>>>->>>>>>;>>>:>>>:>,5qgjsa84,::>;>>",
">>>>-;5iuuuuuuuuru6>;:>>>>>>>>;>>>>>>>>>>>>>>>>>5yghjhsf5;->>;>>",
">>>>;;57rurrrirrru,;:>;;>>:>>>>>>>;*>>>>:>>>>>-:5asjhhda8;;>>:>>",
">>>>>>>4ruurrruu5,>>>>>;>>>>>>>>>>;>>>>>>>>>>>>>,5phjja54>>>>>>>",
">>>>>->>,r6ru66u>;;:>>:,>>>>>>>4>>>>>>>>;;;>->>--;6yae7>;>>>:>>:",
":>>>>>;>,,,,,4,,4>*>>>>>>>>>>>>*>>>>>;>>>>>>>>>>::>575>>->>>>>>>",
">>>>:>*>-:,;::::;>>>>;;;;-;>->>>>>-;;;;-;;;;;;;;>:>::-;>>>>>>>>>",
">>>>>>>>:::::;;;>>->>>>>>>>>>>>>>>>>>>>>>>>>>>>>;>>;;->>>>>>>>>>",
">>>>>>>>;;>,;,:;>>>>>>>>>>>;>>>>>>>*>>>>>>>>>>>>;;;;;>>>>>>>>>>>",
">>>>>>>>>>>:::>>>>>>>>*>>>>>>>*>>>>>>>>>>>>>>;>>>>:>>>>>>>;->:>>",
"llll22l222zzzzzzkkkkkkkkkkk2kklkkkkkkkkkkkklklzzzz23l22l2l222222"
};
